<?xml version="1.0" encoding="UTF-8" standalone="no"?>
<!-- Created with sK1/UniConvertor (http://sk1project.org/) -->

<svg
   xmlns:dc="http://purl.org/dc/elements/1.1/"
   xmlns:cc="http://creativecommons.org/ns#"
   xmlns:rdf="http://www.w3.org/1999/02/22-rdf-syntax-ns#"
   xmlns:svg="http://www.w3.org/2000/svg"
   xmlns="http://www.w3.org/2000/svg"
   xmlns:sodipodi="http://sodipodi.sourceforge.net/DTD/sodipodi-0.dtd"
   xmlns:inkscape="http://www.inkscape.org/namespaces/inkscape"
   width="400"
   height="345"
   viewBox="0 0 320 276"
   id="svg3393"
   version="1.1"
   inkscape:version="0.91 r13725"
   sodipodi:docname="1.svg"
   style="fill-rule:evenodd">
  <metadata
     id="metadata3421">
    <rdf:RDF>
      <cc:Work
         rdf:about="">
        <dc:format>image/svg+xml</dc:format>
        <dc:type
           rdf:resource="http://purl.org/dc/dcmitype/StillImage" />
        <dc:title></dc:title>
      </cc:Work>
    </rdf:RDF>
  </metadata>
  <defs
     id="defs3419" />
  <sodipodi:namedview
     pagecolor="#ffffff"
     bordercolor="#666666"
     borderopacity="1"
     objecttolerance="10"
     gridtolerance="10"
     guidetolerance="10"
     inkscape:pageopacity="0"
     inkscape:pageshadow="2"
     inkscape:window-width="1235"
     inkscape:window-height="784"
     id="namedview3417"
     showgrid="false"
     inkscape:zoom="1.7202897"
     inkscape:cx="190.41994"
     inkscape:cy="187.31557"
     inkscape:window-x="0"
     inkscape:window-y="0"
     inkscape:window-maximized="0"
     inkscape:current-layer="g3403"
     inkscape:showpageshadow="true"
     units="px" />
  <g
     id="g3399"
     transform="matrix(0.49391596,0,0,0.49391596,65.995612,-437.69521)">
    <g
       id="g3403"
       transform="translate(-111.94946,-130.00583)"
       style="fill:#ff0000">
      <path
         style="fill:#ffffff;fill-opacity:1;stroke:none"
         d="m 205.39411,1220.2845 c 0.0366,-3.7761 0.96473,-10.0667 -3.81432,-11.2228 -0.65013,-1.5328 -2.39519,-1.9013 -4.19269,-1.8688 -4.11842,0.077 -9.63761,1.3319 -10.64603,6.2144 -0.45264,2.1876 0.24555,6.4155 0.47536,8.6835 -0.62477,0.055 -0.9848,0.1799 -1.18929,0.3974 -1.19978,1.2729 0.87297,5.0927 2.31133,5.5101 0.35126,0.1025 0.66499,0 1.04423,-0.248 0.27176,0.9053 0.5444,1.8116 0.81617,2.7169 0.02,0.066 0.0332,0.164 0.0411,0.2852 4.93895,6.0007 7.95895,5.711 13.25007,1.5799 -3.30139,6.0107 -9.05301,6.4589 -13.31211,-0.3098 -0.0996,1.0838 -0.35392,2.1703 -0.7454,2.3405 -0.61517,0.2671 -0.97432,0.3613 -1.71709,0.5885 1.88487,20.052 16.33649,23.028 18.27116,2.0054 -0.59856,-0.2363 -0.99618,-0.7624 -1.51784,-1.1734 -0.25606,-0.2017 -0.33994,-0.2979 -0.36703,-0.4381 -0.10135,-0.5235 -0.11178,-3.2882 0.0376,-3.6497 0.13718,-0.3268 0.22982,-0.6454 0.28836,-0.9588 0.20361,-1.0682 0.0411,-2.1067 0.0236,-3.377 1.31863,0 2.08848,-0.8564 2.49917,-1.9772 0.33294,-0.9073 0.87385,-4.5567 -0.33467,-5.0157 -0.22283,-0.085 -0.53304,-0.034 -1.22163,-0.084 z m -26.27644,91.6366 -3.34419,-1.0819 -0.36614,0.9832 -2.33056,5.4974 8e-4,0 c -0.0576,0.1303 -0.0857,0.2436 -0.0786,0.3368 0.0786,1.1979 3.7217,1.8841 4.81837,1.3998 2.96669,-1.8252 6.54946,-1.4371 9.55809,0.016 2.94835,1.4249 4.54923,3.129 7.86634,4.0821 l 0.69645,-0.1927 c 1.05647,-2.5912 1.30375,-3.3571 4.17258,-3.5572 1.58255,-0.1108 3.01127,-0.5586 4.61216,-1.147 -8.53484,-1.4125 -17.33268,-3.8325 -25.60534,-6.3376 z m 247.61465,-12.7891 c 0.0376,0.3296 0.11712,0.6093 0.2604,0.9388 0.277,0.6436 1.4427,2.3812 2.01245,2.783 0.57936,0.4093 1.24261,0.071 1.3772,-0.5032 0.48584,0.074 0.76808,0.1038 0.99791,0.015 0.72267,-0.2798 1.24873,-1.8506 1.44358,-2.623 0.75412,-0.4462 1.83071,-1.0674 2.00635,-2.0181 -2.69581,0.4889 -5.39423,0.9579 -8.09789,1.4079 z m -92.66052,142.0807 c 3.75052,-0.1206 7.29833,-0.3115 10.57262,-0.4844 6.54857,-0.3413 12.00311,-0.7513 15.82441,-1.0692 1.90934,-0.1403 3.40885,-0.3177 4.43214,-0.4092 1.0189,-0.099 1.56941,-0.152 1.56941,-0.152 0,0 -0.54702,-0.054 -1.56941,-0.1513 -1.02329,-0.096 -2.5228,-0.2707 -4.43214,-0.4109 -3.8213,-0.3179 -9.27584,-0.7272 -15.82441,-1.0619 -3.27429,-0.1786 -6.8221,-0.3705 -10.57262,-0.4918 -8.85552,-0.3296 -16.40638,-0.5414 -25.38686,-0.6519 0.0217,0.6374 0.0314,1.3039 0.0192,2.01 -0.0228,1.2837 -0.15381,2.4689 -0.37138,3.5644 9.05563,-0.1097 16.70962,-0.3595 25.73903,-0.6918 z m -45.76664,-4.9541 c -13.76913,0.08 -26.14011,0.4527 -39.69603,1.2086 -6.54596,0.3332 -12.00135,0.7435 -15.82179,1.0649 -3.81958,0.3159 -6.00068,0.5658 -6.00068,0.5658 0,0 2.1811,0.2488 6.00068,0.5667 3.82044,0.3178 9.27583,0.7334 15.82179,1.0673 13.37677,0.7406 25.28725,1.1299 38.72696,1.2169 -0.0108,-1.6821 0.37487,-3.577 0.96907,-5.6902 z m -56.83384,-19.7253 c -6.53022,-0.126 -12.69867,-0.3113 -18.39962,-0.4942 -11.39316,-0.3314 -20.88922,-0.7451 -27.53216,-1.0647 -3.32409,-0.1766 -5.9369,-0.3159 -7.71428,-0.411 -1.78176,-0.1025 -2.72901,-0.1566 -2.72901,-0.1566 0,0 0.94725,-0.05 2.72901,-0.1541 1.77738,-0.096 4.39019,-0.2362 7.71428,-0.4109 6.64294,-0.3161 16.139,-0.7353 27.53216,-1.0675 5.70095,-0.1802 11.8694,-0.3674 18.39962,-0.4918 16.10492,-0.3511 30.68935,-0.5711 46.80213,-0.6562 -0.22805,1.3636 -0.4439,3.4513 -0.16428,5.5481 -16.04636,-0.088 -30.56875,-0.2979 -46.63785,-0.6411 z m 77.56926,-4.926 c 18.14534,0.07 34.61116,0.3006 52.74774,0.6828 6.52499,0.1219 12.69695,0.3158 18.39091,0.4915 6.75479,0.1982 12.0363,0.4435 17.25752,0.66 0.48149,0.8737 1.39377,1.4703 2.28421,1.8903 -5.66598,0.2419 -11.85542,0.4745 -19.54173,0.699 -5.69396,0.1803 -11.86592,0.3711 -18.39091,0.4935 -18.22135,0.3847 -34.7431,0.611 -52.93998,0.6763 l 0.0121,-0.2553 c 0.0149,-0.3007 -0.56276,-0.4047 -0.5444,-0.767 0.07,-1.3978 0.49895,-3.2437 0.72441,-4.5711 z m 99.55951,2.2435 c 3.22798,0.1684 5.08488,0.3123 6.83081,0.4056 1.77915,0.1 2.72901,0.1504 2.72901,0.1504 0,0 -0.94986,0.054 -2.72901,0.1566 -1.78176,0.09 -3.98384,0.2099 -7.30795,0.3902 l -0.81441,0.037 c 0.45528,-0.2245 1.05472,-0.7017 1.29155,-1.1408 z m -15.44256,-190.6211 c -0.54003,1.7273 -2.37684,5.1533 -4.32202,6.3169 -1.34835,0.8064 -2.87581,0.2153 -2.92125,-1.5645 -0.68773,0.5359 -0.25342,2.2698 0.11539,2.8945 0.65364,1.1052 1.90672,1.8105 3.18079,2.0051 2.459,0.3759 5.20635,-0.7586 5.20985,-1.721 0.006,-1.3019 -0.32769,-4.4517 -0.35564,-4.7395 -0.10752,-1.1165 -0.43956,-1.838 -0.90706,-3.1915 z m 16.35223,1.1181 c 0.40283,-0.6392 0.81003,-1.6442 1.1124,-2.2362 0.47275,0.1081 0.81616,0.1675 0.9883,0.1039 0.15991,-0.06 0.33206,-0.382 0.45877,-0.7062 0.14069,-0.3612 0.12677,-0.5469 0.34779,-0.8647 0.22196,-0.3213 0.3574,-0.5114 0.4378,-0.6798 0.26739,-0.5578 0.0437,-1.7176 -0.12931,-2.5242 -0.0839,-0.3884 -0.11016,-0.3867 -0.0394,-0.7787 0.0376,-0.2145 0.0768,-0.4281 0.11446,-0.6428 0.10403,-0.535 0.2167,-0.7668 0.19137,-0.9886 -0.0568,-0.5025 -0.40021,-0.6473 -0.80831,-0.6736 0.35566,-5.1778 1.3431,-9.7227 -4.08172,-12.3935 -0.75325,-0.3705 -1.39728,-0.9842 -2.16275,-1.2161 -0.86687,-0.2615 -1.81848,-0.2081 -2.73339,-0.247 -0.49198,-0.022 -1.30203,-0.094 -1.79312,-0.05 -1.50039,0.1359 -2.94486,0.5849 -4.22589,1.3328 -0.48586,0.2824 -1.01716,0.4544 -1.45059,0.8221 -0.78645,0.6672 -1.73983,1.1643 -2.28773,2.1358 -1.37017,2.4308 -2.11819,7.6829 -1.47243,11.1251 -0.41068,-0.085 -0.82664,-0.211 -1.15695,0.1964 -0.2814,0.3495 0.26214,2.0109 0.3915,2.4627 0.0244,0.6852 0.009,1.0048 0.0673,1.2628 0.12582,0.5687 1.69962,2.4573 2.31569,2.5108 0.09,0.014 0.18262,-0.037 0.35565,-0.1694 0.11538,0.3322 0.23156,0.6645 0.34605,0.9969 0.18087,0.5023 0.48409,1.1598 0.66497,1.663 0.51121,2.3115 0.80482,3.703 0.84763,6.4245 0.0272,1.7484 -1.45582,2.2951 -2.77969,2.9044 -0.12849,0.4735 0.29973,0.5017 0.30061,0.976 0.94286,0.1316 1.07569,1.3227 0.74364,2.6047 0.38361,0.6156 2.00546,4.4979 0.91229,4.7968 0.14418,0.5014 0.12141,0.8428 0.008,1.0674 3.24282,3.8178 10.50618,3.0753 14.15186,0.247 3.89385,-3.0201 2.9536,-6.7767 1.60612,-10.0331 1.10279,1.6295 2.87144,4.8953 1.8578,7.6946 -1.92507,8.514 -13.62759,10.6553 -18.23535,3.7265 0.0786,0.3976 -0.12675,0.5793 -0.76288,1.1589 -0.82839,0.7079 -1.48901,0.6328 -1.90933,0.3494 0.42293,2.4589 1.0023,5.1198 -1.23386,6.2371 -0.0135,0.087 -0.0559,0.1783 -0.0403,0.2662 0.18614,0.9941 -0.44476,1.3806 -0.78645,2.0216 -1.13424,4.0243 -2.16362,7.1761 -3.62645,10.8754 -0.11792,0.2987 -1.24347,3.3235 -1.22511,3.4341 0.35478,2.1792 0.68071,3.71 1.1491,5.3795 0.29011,1.0357 0.54877,1.1045 0.87383,2.1375 2.5525,0.2708 9.32041,-1.0102 12.27662,-1.7119 3.69723,-0.879 19.09171,-4.9098 20.63579,-1.043 0.18002,-1.186 0.22108,-1.4387 0.31371,-2.6781 0.11005,-1.7057 0.15119,-2.574 0.23506,-4.2516 -1.71885,0.042 -5.22295,-0.9796 -6.43236,-3.3273 3.74968,1.6188 8.89922,1.1552 9.33964,-4.0985 0.12408,-1.4912 -0.84938,-3.1705 -1.30202,-4.2372 -1.38069,-3.2574 -2.08324,-5.7581 -3.52596,-9.221 -0.54703,-1.3138 -0.49723,-2.8048 -1.06784,-4.6328 -0.77597,-2.4826 -1.53796,-4.5025 -3.48576,-7.2094 0.82142,0.7669 1.80187,1.1932 2.30083,1.8252 1.06085,1.3427 1.78613,3.1887 2.39172,5.0873 0.49894,1.5662 0.85811,2.8645 1.35095,4.2234 0.59945,1.6533 1.42437,2.7514 1.82983,4.0471 0.31107,0.9922 0.31721,1.7138 0.81442,2.4923 0.36263,-0.6346 0.92277,-1.2185 1.35271,-1.406 0.15728,-0.07 0.55487,-0.2489 0.92102,-0.2127 -0.44567,0.4345 -0.38973,1.5048 -0.83539,1.9392 -0.14505,0.1422 -0.39847,0.3885 -0.64053,0.6873 -0.1468,0.1801 -0.27962,0.5341 -0.3041,0.8166 0.73927,1.0003 0.99532,1.3743 1.93206,2.6997 0.81094,1.1472 1.22951,3.1346 1.54672,4.4872 -0.14856,2.0135 -0.0866,4.0307 0.1214,6.0352 0.29799,2.8825 1.00405,5.5968 1.52399,8.3592 2.4153,-0.6448 4.8105,-1.3038 7.17685,-1.9711 0.39935,-3.6097 0.53568,-6.5613 -0.22893,-10.4514 -0.39759,-2.0254 -0.79868,-3.6469 -1.48728,-5.4368 -0.20971,-0.5441 -0.42382,-1.0856 -0.63442,-1.6288 -0.21233,-0.5451 -0.37224,-1.0357 -0.51556,-1.5318 -0.74276,-2.583 -1.09055,-3.6351 -2.21257,-5.9592 0.0926,-2.1176 0.23593,-2.899 -0.11967,-4.4335 -0.5986,-2.5904 -2.69756,-6.0633 -5.17228,-6.8583 -0.99093,-0.3186 -2.2117,-0.4796 -3.24458,-0.6717 -1.26531,-0.4661 -2.37685,-0.9 -3.52682,-1.2902 -1.62448,-0.5495 -3.30837,-0.9496 -4.96081,-1.4204 -0.56625,-0.316 -1.19104,-0.6538 -1.79137,-0.8828 -0.43693,-0.1666 -0.87122,-0.2416 -1.4165,-0.088 -0.16428,-0.084 -0.65539,-0.1703 -0.81967,-0.2555 -0.32768,-2.6934 0.0934,-5.1144 0.35916,-8.5003 z m -0.10752,-11.6375 c -0.69207,-0.5378 -0.90704,-0.5251 -1.25832,-0.5587 -0.48586,-0.045 -0.84763,-0.024 -1.22863,0.09 -0.20447,0.06 -0.3373,0.1136 -0.45702,0.182 -0.23155,0.1331 -0.38448,0.2119 -0.51118,0.2572 -0.24644,0.087 -1.32475,0.078 -1.53271,-0.015 -0.35392,-0.1512 0.25427,-1.1064 0.42991,-1.2331 0.3242,-0.2355 0.67811,-0.2416 1.34573,-0.2726 0.96732,-0.043 1.46979,-0.1247 1.97575,0.1316 0.36003,0.1828 0.70257,0.7588 1.23647,1.416 z m -14.11254,0.1135 c 0.66761,-0.5675 0.83541,-0.544 1.18405,-0.5928 0.4841,-0.068 0.84587,-0.06 1.2321,0.034 0.20713,0.051 0.2648,0.039 0.38713,0.1012 0.2377,0.122 0.39411,0.1956 0.52169,0.2343 0.24991,0.076 1.37193,0.033 1.57554,-0.064 0.34605,-0.1664 -0.0157,-1.0863 -0.19662,-1.2058 -0.33381,-0.2192 -0.88256,-0.2952 -1.55106,-0.2952 -0.96823,0 -1.47331,-0.058 -1.96878,0.2209 -0.35217,0.1984 -0.67898,0.8863 -1.18405,1.5661 z m 4.98701,2.363 c -1.09929,-1.9673 -3.31623,-1.3986 -3.72518,0.1011 0.14767,-0.038 1.11851,-0.1429 1.1421,0.1096 0.15206,0.9027 1.40429,0.7232 1.46895,0.1494 0.0943,-0.4238 0.6038,-0.027 1.11413,-0.3604 z m 7.9013,0.024 c -0.90533,-2.0026 -3.08993,-1.5454 -3.7252,-0.075 0.14943,-0.032 1.23036,-0.025 1.26183,0.2246 0.10576,0.8592 1.28367,0.7859 1.35096,0.014 0.0235,-0.2697 0.58809,0.2138 1.11241,-0.1575 z m -14.88591,1.0041 c 0.26826,-3.5807 -0.30148,-6.7458 2.18023,-8.9848 1.1657,-1.0511 1.39028,-0.7931 2.4022,-1.1598 0.61518,-0.219 1.21988,-0.5931 1.85691,-0.7198 0.77859,-0.1548 1.71184,0.201 2.58133,0.1766 0.40895,-0.015 1.58427,-0.402 2.02295,-0.3866 1.32211,0.048 2.53328,0.2265 3.59585,0.7885 0.64141,0.3398 1.49428,0.6428 1.86303,1.4225 1.17621,2.4942 1.20416,7.2872 1.43923,10.6796 0.33643,-0.9922 0.44478,-1.6677 0.45701,-2.2263 0.0192,-0.8402 -0.0654,-4.354 -0.17389,-4.9233 -0.57673,-3.0275 -0.69907,-4.8383 -2.11994,-5.8787 -0.5846,-0.4282 -1.88662,-1.2947 -2.70628,-1.4185 -0.93677,-0.1404 -1.46719,-0.6981 -2.7063,-0.461 -0.27439,0.052 -1.17096,0.4346 -1.4331,0.4182 -1.92946,-0.126 -3.56877,-0.8537 -5.26141,0.2219 -2.38034,1.512 -3.44555,3.4324 -3.8755,5.2601 -0.10748,0.4563 -0.30497,1.3382 -0.53652,1.9285 -0.27351,0.6981 -0.20362,5.5752 -0.10484,5.5734 -0.41595,-0.1665 -0.31457,-0.1218 -0.16516,0.5613 0.55139,2.7541 0.54877,0.9364 0.68423,-0.8718 z m 8.27354,-1.5445 c 0.18612,0.8039 0.16252,1.5617 7.9e-4,2.4427 -0.2272,1.2357 -0.64751,1.2104 -0.60994,-0.133 0.0332,-1.1914 -0.21146,-5.8486 0.60908,-2.3097 z m 1.97924,0.9307 c -0.3434,1.0566 -0.0996,2.5558 0.23594,2.333 0.1704,-0.1136 0.12061,-1.1614 -0.23594,-2.333 z m -0.3102,4.6081 c 0.0873,-0.1946 0.28574,-0.3691 0.51819,-0.4452 0.18961,-0.063 0.5741,0.029 0.62655,0.3874 0.0576,0.3784 -0.33557,0.4472 -0.69211,0.5233 -0.24378,0.051 -0.16689,0.091 -0.27263,0.2345 -0.46926,0.6339 -1.29329,0.9924 -1.77128,0 -0.0934,-0.1966 -0.12236,-0.192 -0.2604,-0.1992 -0.34867,-0.019 -0.79782,-0.034 -0.71743,-0.5742 0.0533,-0.3583 0.29361,-0.4254 0.48411,-0.3629 0.20798,0.069 0.45965,0.2218 0.54353,0.3875 0.0637,0.1261 0.1372,0.2363 0.21846,0.3285 0.471,0.5415 1.06173,0.3025 1.32301,-0.2806 z m -2.90379,3.8198 c 0.29273,0.042 0.55663,0.1262 0.82841,0.2264 0.80743,0.3016 2.00634,0.2564 2.7928,-0.093 0.15816,-0.069 0.33293,-0.1261 0.51994,-0.1664 -0.25778,-0.094 -0.5112,-0.2391 -0.81269,-0.3532 -0.48584,-0.1838 -0.73051,0.014 -1.12375,0.039 -0.5951,0.05 -1.02413,-0.2408 -1.61574,0.075 -0.19749,0.1068 -0.39322,0.2028 -0.58897,0.2726 z m 5.79094,-0.3321 c -2.3244,1.9537 -5.25964,1.7772 -7.39269,-0.014 0.96297,0.1051 1.74594,-1.2096 2.77619,-1.2712 0.26391,-0.017 0.56276,0.051 0.90966,0.2472 0.35131,-0.209 0.71394,-0.3042 1.10193,-0.2381 0.94026,0.1621 1.60175,1.378 2.60491,1.2728 z m -6.19116,1.2059 c 0.81355,0.7325 1.18056,1.1525 2.46685,1.1289 1.36407,-0.027 1.62361,-0.3203 2.53852,-1.0148 -0.25603,2.5849 -4.10356,2.9388 -5.00537,-0.1137 z m -4.78428,0.1946 c 0.97257,1.6695 3.21136,3.9474 5.11198,4.6635 1.30813,0.4908 2.73425,0.6729 4.05026,0.1302 2.03954,-0.8419 3.99257,-2.7901 4.9075,-4.8763 -1.35884,4.269 -4.46797,7.9221 -8.88612,6.3259 -2.03255,-0.7343 -4.31941,-4.2153 -5.18362,-6.2424 z m -5.39334,17.8404 c 0.82052,-1.3428 1.81758,-2.2718 3.18251,-0.9589 -1.18666,-0.3532 -2.10421,0.21 -3.18251,0.9589 z m -0.45792,-2.0698 c 1.37456,-2.3739 3.47878,-3.1109 4.46622,0.1667 -0.45092,-0.7261 -1.12988,-1.5581 -2.04044,-1.3907 -0.79693,0.1475 -1.72758,0.7895 -2.42578,1.224 z m -2.41705,-4.1864 c -1.33873,0.3432 -2.69929,0.5034 -4.06685,0.5912 -0.97871,0.063 -1.53885,0.082 -2.17501,0.1945 -1.46717,0.2609 -2.29383,0.9218 -2.88717,1.8554 -0.83014,1.3045 -1.35183,3.0971 -1.71972,4.926 -0.29887,1.4874 -0.48148,2.6482 -0.56801,3.8288 -0.31631,4.3404 -0.0386,5.5155 -0.54788,7.9843 -0.53917,2.6121 -1.23125,4.5144 -1.69002,6.9216 -0.23855,1.2448 -0.34954,2.4473 -0.46838,3.7038 -1.08357,2.5587 -2.25539,6.0108 -0.93763,8.6662 0.0438,0.4419 0.0647,0.8755 0.0892,1.3056 0.0446,0.7731 0.0314,1.1506 0.18176,1.5763 0.1083,0.3085 0.32857,0.6853 0.5479,1.0446 0.51383,0.8384 1.02501,1.4116 1.68914,1.8823 1.55108,1.0991 2.29472,0.2328 3.68063,-0.737 0.71392,-0.4961 1.44184,-1.5798 2.05614,-2.5949 0.52869,-0.8717 1.06608,-1.7744 1.5537,-2.6696 1.46107,-2.6855 2.00372,-4.6419 2.76047,-7.809 1.45582,-4.295 2.92476,-8.5647 4.27746,-12.8968 0.20186,-0.3432 0.39061,-0.6681 0.57236,-1.0221 0.18789,-0.3659 0.17478,-0.3333 0.16516,-0.9489 -0.004,-0.202 0.0411,-0.3885 0.22457,-0.5352 1.16746,-0.9361 1.25134,-2.478 1.20941,-3.9617 -0.0533,-1.923 -0.77073,-2.7306 0.79783,-3.4866 0.63702,-0.307 1.07743,-0.091 0.88869,0.2028 -0.19313,0.3023 -0.52955,0.46 -0.77248,0.707 -0.27265,0.278 -0.006,0.3866 0.32245,0.3105 0.33642,-0.077 0.9953,-0.6818 1.2059,-0.9668 0.28751,-0.3904 0.40285,-0.9226 0.0874,-1.771 0.82491,0.7914 1.04599,-0.4174 0.81529,-0.9658 1.35447,-0.2129 -0.9184,-3.7212 -1.95304,-4.3966 -1.26969,-0.8294 -3.37303,1.0121 -4.46097,1.6722 0.48762,-0.4581 1.92333,-2.2534 3.34071,-2.6248 0.0934,-0.024 0.18351,-0.037 0.27002,-0.043 -0.49808,-1.175 -1.21115,-1.0139 -2.19072,-0.1773 -0.95861,0.8174 -1.97402,1.703 -2.95797,2.3649 -0.61343,0.4119 -0.85198,0.5096 -1.18842,1.3381 -0.29624,0.7268 -0.31372,1.3443 -0.22981,2.3495 0.17302,2.0587 0.34429,4.0206 0.21146,6.1309 -0.0438,0.691 -0.11447,1.3346 -0.24556,1.6371 -0.2298,0.534 -0.39759,0.7578 -0.80043,1.3427 -1.49602,2.169 -2.32267,4.5829 -3.82829,6.7448 -1.91897,2.7551 -3.84229,5.2883 -6.21216,7.7807 2.04129,-2.7531 3.45518,-5.3498 5.3689,-8.1328 1.47329,-2.143 1.94604,-4.6508 3.34594,-6.7812 1.91284,-2.8981 1.20415,-5.1778 0.87645,-8.8047 -0.10577,-1.1752 0.0944,-1.8687 0.48411,-2.6255 0.43779,-0.8493 1.01191,-1.0802 1.66643,-1.5112 0.98394,-0.6463 2.32615,-1.4321 3.40711,-2.2407 -0.76725,0.1755 -1.44186,0.4483 -2.19598,0.6411 z m 6.26632,1.225 c 0.10925,-0.4274 0.30236,-1.2612 -0.0253,-1.7166 -0.44303,-0.6138 -1.16745,-0.1343 -1.52136,0.4454 0.6449,0.094 1.0923,0.7236 1.54669,1.2712 z m 32.07264,18.2204 c 0.59948,0.793 0.79696,0.9969 1.45496,1.7202 1.95479,2.1485 4.13765,0.8827 4.50815,-1.4821 0.11271,-0.7171 0.13197,-1.0167 0.17478,-2.0813 0.0778,1.2802 0.36439,2.6762 0.0691,3.6856 -0.48586,1.6698 -1.71186,3.4577 -3.58188,2.3269 -1.30027,-0.7867 -1.91547,-2.9144 -2.62503,-4.1693 z m 6.83871,4.7559 c -1.42,0.3051 -1.23387,2.0145 -2.93262,1.7999 -0.46838,-0.06 -0.95422,-0.4146 -1.58252,-0.4065 0.21146,-0.2209 0.87296,-0.3034 1.22337,-0.383 0.42643,-0.097 0.82754,-0.1947 1.07571,-0.3176 0.8083,-0.4012 0.65539,-0.7407 2.21606,-0.6928 z m -27.85984,-21.1775 c 0.74888,1.9892 0.77858,2.8385 -0.71483,3.9883 0.39763,-1.5563 0.63529,-2.3766 0.71483,-3.9883 z m -3.30486,-0.3195 c 0.25253,2.3223 0.65797,3.389 1.77649,5.3426 -2.25712,-1.0918 -3.42721,-2.4961 -1.77649,-5.3426 z m -12.93113,24.0964 c 6.36155,2.7759 8.7454,2.6672 14.9025,-0.3577 -2.62241,6.314 -11.11004,7.9019 -14.9025,0.3577 z m -0.33033,17.3846 c 0.23768,1.0975 0.0594,1.3927 0.0647,2.5281 8e-4,0.1638 -0.006,0.3377 -0.02,0.5195 10.09201,-1.1517 20.84814,-3.3027 31.45833,-5.8902 0.10309,-0.727 0.11715,-0.8059 0.24118,-1.5364 -2.7858,-3.6071 -25.37551,3.7101 -31.74408,4.379 z m -3.75927,23.1369 c -0.0358,0.4579 -0.0708,0.9215 -0.10039,1.3896 0.83714,0.9967 1.57029,1.6588 2.67833,2.288 0.55052,0.3122 1.0923,0.6282 1.63232,0.9785 3.9524,2.5558 2.9737,2.009 8.47891,4.7605 2.05178,1.0258 1.55195,1.2431 3.03049,2.8591 0.61255,0.669 0.78995,0.7984 1.71446,1.6142 -1.55456,-0.8292 -2.01858,0 -3.00864,-0.9379 -0.81528,-0.7749 -0.7445,-1.0438 -1.83681,-1.3101 -3.00077,-0.7289 -11.44822,-4.1536 -12.82013,-7.7001 -0.40547,7.4901 0.0673,14.3873 1.56941,21.184 1.05647,4.7902 2.23617,9.7831 3.48226,14.5174 0.22547,0.8583 0.45615,1.7156 0.68685,2.5721 0.50421,1.8687 0.96034,3.3472 1.1823,5.2764 0.18003,1.5473 0.39498,2.7958 0.85987,4.5368 -0.28662,1.4848 -0.63966,2.7587 -0.70783,4.3088 -0.11445,2.6498 0.47363,5.4764 1.2898,8.2613 1.58428,5.4043 3.73043,10.7196 5.76038,15.9588 0.44391,1.006 0.88782,2.012 1.33173,3.0169 -0.32945,0.5684 -0.47886,0.9706 -0.56363,1.4166 -0.12931,0.6838 -0.14766,1.5195 -0.14244,2.3306 0.006,1.2965 0.0235,1.4937 0.41071,2.7206 -0.0778,2.7867 -0.36876,5.5644 -0.748,8.3258 -0.0717,0.5196 -0.13279,0.8726 -0.22721,1.2413 -0.25341,0.9876 -0.36178,1.8206 -0.44478,2.6418 -0.42556,4.2263 2.30693,8.458 6.38079,8.381 4.8341,-0.09 5.33919,-5.751 4.6969,-9.8306 -0.18437,-1.176 -0.3102,-2.3023 -0.42992,-3.4748 -0.0734,-0.7269 -0.0734,-1.519 -0.0638,-2.2995 0.0217,-1.818 0.0262,-3.1951 -0.25604,-4.985 0.12235,-1.8524 0.41509,-3.846 -0.22981,-5.6098 -0.51209,-1.4031 -1.48642,-4.3284 -2.92826,-4.3601 0.0769,1.3997 -0.0654,1.5193 0.55315,2.7949 0.26565,0.5479 0.52517,0.9207 0.60818,1.3853 0.52432,2.9179 -4.10967,4.104 -5.96222,2.1373 -0.69209,-0.7342 -0.66062,-1.4647 -0.72878,-2.4226 -0.10059,1.1544 -0.31022,2.3612 0.5042,3.329 0.23419,0.2771 0.54354,0.4989 0.90269,0.6637 2.10247,0.9687 6.44021,0.1765 5.90892,-2.9868 -0.28574,-1.6976 -1.51875,-3.0919 -1.78614,-4.9008 -0.22544,-5.051 -0.38185,-8.8808 -0.24292,-13.834 0.0289,-1.0691 0.0778,-2.1411 0.20448,-3.223 0.19311,-1.6505 -0.0917,-2.8782 -0.58985,-4.7216 -0.33905,-1.2566 -0.74189,-2.4662 -1.27843,-3.7172 -0.44652,-1.0405 0.2438,-1.695 0.3041,-2.835 0.0576,-1.0907 0.14155,-2.1646 0.19138,-3.2954 0.14156,-3.1851 0.0454,-6.2263 0.10829,-9.5624 0.0472,-2.4699 -0.0603,-4.9507 0.18788,-7.5292 0.014,-0.1502 -1.14212,-5.1804 -1.18231,-6.2615 -0.0429,-1.1254 -0.0516,-2.2552 0.10059,-3.3669 0.1214,-0.8982 0.2403,-1.8769 0.1468,-2.6781 -0.0725,-0.6166 -0.0524,-0.7976 -0.60734,-1.9584 -0.79868,-1.6694 -0.17475,-3.5626 0.5951,-5.127 0.84064,-1.7076 2.04915,-4.1964 3.16419,-5.502 1.52223,-1.7817 3.12922,-3.6865 4.81835,-5.1188 1.74508,-1.4812 2.44239,-1.8723 5.29201,-2.9289 0.65014,-0.2409 1.31076,-0.4762 1.99059,-0.7035 2.13132,-0.7125 5.86525,-1.482 7.93539,0.3288 0.0892,0.079 0.16865,0.1655 0.25165,0.2796 -0.0358,-0.1603 -0.0752,-0.3178 -0.11794,-0.4735 -0.25778,-0.9442 -0.45614,-1.367 -0.89656,-2.421 -12.87258,2.0689 -26.34024,3.6594 -41.05312,4.5768 z m 29.58831,35.559 c 0.32244,-0.505 0.67199,-1.3219 0.99531,-1.827 -0.96298,0.6084 -1.44796,0.172 -1.65855,0.8411 -0.11272,0.3603 -0.1573,0.5324 -0.22197,0.6864 -0.49808,1.1858 -1.75554,1.3724 -2.86707,1.2637 -0.50158,-0.048 -0.98045,-0.2074 -1.64981,-0.5894 -0.96648,-0.5497 -1.42961,-0.9697 -2.23878,-2.2018 0.97432,2.0181 2.33839,4.7947 4.84894,4.5631 0.95512,-0.088 1.61224,-0.4256 2.01508,-0.9579 0.38973,-0.517 0.44828,-1.2631 0.77685,-1.7782 z m 0.42995,-32.3631 c -3.02963,3.7943 -5.94739,10.4033 -8.92894,13.1023 0.42468,-1.1406 0.82753,-2.1031 1.25658,-3.0301 2.10335,-4.5432 3.52771,-7.188 7.67236,-10.0722 z m -7.51856,49.5931 c -0.47799,0.5714 -0.94375,1.0757 -1.26358,1.7709 -0.43429,0.9488 0.0533,2.6619 0.23769,3.7526 l 8e-4,0 c 0.31196,0.9825 0.90093,2.6448 1.42524,3.246 -0.28051,-1.9675 -0.96996,-3.1417 0.55139,-2.5839 1.40777,0.515 2.83912,0.4652 4.22678,0 1.49689,-0.4999 1.66729,-0.104 1.66729,1.7057 0.28749,-1.2223 -0.0175,-2.1585 0.88084,-2.9932 -0.84764,1.3852 -0.11272,3.0112 -0.74015,4.169 -0.14768,0.2736 -0.74365,0.5859 -0.73927,-0.024 0.0108,-1.2937 0.13632,-2.296 -0.97521,-1.9834 -1.03025,0.2905 -2.48871,0.4017 -3.71209,0.066 -0.71917,-0.1965 -0.84064,0.5594 -0.54526,2.2218 0.0866,0.487 -0.36178,0.6183 -0.80918,0.1421 -0.42207,-0.4501 -0.69909,-1.2395 -0.91056,-2.1392 l 8e-4,0 c -0.0236,0.9124 0.40895,1.5434 0.40546,2.379 -0.009,2.077 -0.12062,2.5741 0.56888,4.6149 0.0314,0.5812 0.0462,1.1443 0.0489,1.6992 0.006,1.2493 -0.28399,2.4399 -0.29097,3.6124 -0.0184,3.0032 0.1599,10.658 3.75837,11.1994 1.50476,0.2264 3.45433,-0.2643 4.59993,-1.5092 0.72091,-0.7841 1.31949,-1.7211 1.80798,-2.6835 1.32911,-2.6165 1.3492,-5.0764 0.97695,-7.694 -0.39062,-2.7529 -1.05299,-5.9426 -1.90671,-8.7339 -0.26304,-0.8601 -0.47102,-1.6215 -0.66675,-2.4328 -0.29013,-1.1986 -0.58461,-2.3773 -0.89658,-3.5716 0.0296,-0.2806 0.471,-2.0732 -0.24554,-2.249 -0.15204,-0.4608 -0.29623,-0.9089 -0.43255,-1.3688 -0.10403,-0.3531 -0.097,-0.6835 -0.09,-1.0375 0.028,-1.3906 2.13916,-9.472 2.66521,-11.7381 0.41071,-1.7672 2.53066,-5.7989 1.15086,-11.0989 -0.91317,1.0493 -0.68597,1.3489 -2.06664,2.6328 -0.52867,0.4907 -1.01539,0.2028 -2.17062,0.9688 0.94812,-0.8485 1.35969,-1.7366 1.91283,-2.583 0.51382,-0.7841 0.47799,-1.2612 0.74713,-1.7366 0.27527,-0.4861 0.67199,-1.0257 0.97696,-1.5372 0.98307,-1.8905 2.12606,-3.4014 3.13797,-5.253 1.21202,-2.2173 2.20384,-4.3312 3.03923,-6.6183 0.69733,-1.9148 1.36145,-3.0031 2.15229,-4.7712 0.80916,-1.8089 1.12637,-3.062 1.39464,-5.0095 0.25429,-1.8439 0.41857,-3.6168 0.0472,-5.6394 -0.29186,-0.2816 -0.49197,-0.4625 -0.74714,-0.6319 -1.72496,-1.1298 -3.85451,-0.277 -5.58385,0.3304 -0.99269,0.3495 -1.93468,0.6889 -2.86882,1.0448 -2.52804,0.9606 -3.85453,1.7047 -5.13382,2.8084 -2.03518,1.7592 -3.96725,4.1212 -5.75863,6.2543 -0.64751,0.7705 -1.35707,1.3183 -1.88662,2.1483 -0.40897,0.6411 -0.69647,1.1899 -0.8887,1.7294 -0.25342,0.7079 -0.3644,1.4566 -0.34954,2.2029 0.028,1.2347 0.22195,1.3995 0.8249,2.3945 0.16516,0.3848 0.24207,0.69 0.27439,0.9805 0.0743,0.6799 -0.0289,1.7519 -0.14331,2.735 -0.13981,1.2125 -0.15029,2.1966 -0.12676,3.273 0.0296,1.2991 0.15729,1.9087 0.43691,2.9732 0.20711,0.794 0.28578,1.5464 0.39762,2.3595 0.0497,0.4907 0.10135,0.9832 0.15118,1.4749 0.0795,0.7903 0.19574,1.4973 0.4806,2.2108 0.24292,0.613 0.33119,0.9661 0.38798,1.4032 0.12852,0.9888 0.0594,2.0091 -0.0134,3.0167 -0.0778,1.0792 0.0665,2.1558 0.2333,3.2268 0.30409,1.9539 0.67199,3.6686 1.14387,5.4875 0.28225,1.0936 0.35215,1.7654 0.37138,2.5991 0.0411,1.7539 -0.0332,1.4559 -1.12201,2.7796 z m -0.0542,0.6022 c -0.38974,0.8075 -0.8389,1.6512 -0.76985,2.5856 0.0209,0.2844 0.0996,0.554 0.30495,0.7823 0.42033,0.4672 1.23301,1.1126 1.91023,1.4839 0.99008,0.5405 2.36812,0.3196 3.39924,0.014 1.43835,-0.4291 1.99938,-1.8723 2.67046,-3.1154 -0.78732,1.0214 -1.35619,1.647 -2.62065,2.0806 -0.79519,0.2734 -1.67078,0.4528 -2.4922,0.2173 -1.01627,-0.2914 -2.66346,-1.1363 -2.67132,-2.3801 -0.004,-0.7424 0.13196,-0.9352 0.26914,-1.6659 z m 1.3265,10.2323 c 1.83069,0.1567 4.40327,-0.1739 5.20634,-0.6899 -0.3207,1.5636 -3.63781,2.0155 -5.20634,0.6899 z m 9.31166,7.9627 c 0.4509,2.7107 -0.0332,5.3959 -1.25221,7.5879 -0.87472,1.5726 -2.50184,3.3227 -3.4412,3.1869 -1.05561,-0.153 -1.25309,-0.3703 -2.35764,-0.325 -0.24554,0.014 -0.48584,0.055 -0.70518,0.06 -0.38624,0.015 -0.53654,-0.1981 -0.87473,-0.5946 0.56714,0.3349 1.12728,-1.0276 2.27025,-0.9163 1.10192,0.108 1.16746,0.795 2.22918,0.2779 3.3171,-1.616 4.06949,-5.874 4.13153,-9.2782 z m -8.52258,2.5015 c 0.72004,-0.7332 6.08892,-0.8265 6.00854,-1.5064 -0.0944,-0.7886 -5.84077,-1.0945 -5.93688,-1.3981 -0.19139,-0.6074 5.45277,-0.8482 5.60568,-1.7318 0,-1.1905 -4.21191,-1.1308 -5.47899,-0.9923 0.90618,-1.6577 5.3051,-1.3699 4.86118,-1.8588 -1.0355,-1.1406 -4.46708,-1.1806 -5.37498,-0.2443 1.71271,-0.297 2.02992,-0.3017 3.73829,0.1556 -0.30848,0.063 -0.61695,0.1248 -0.92454,0.1884 -1.12724,0.2019 -2.54462,0.5885 -3.15457,1.7927 -0.25165,0.4932 -0.22021,0.5648 0.0332,0.5675 1.80537,0.017 3.33635,0.084 5.13822,0.3016 -1.72498,0.316 -4.90401,0.3169 -5.27015,1.8568 -0.0272,1.1851 4.55184,1.2838 5.83814,1.4741 -1.22512,0.064 -4.34387,-0.2156 -5.08314,1.395 z m -10.11386,26.8333 c -0.10059,2.8827 0.96296,5.3227 3.02348,7.3551 0.25342,0.2499 0.76462,0.043 1.29679,-0.1108 1.24784,-0.3576 2.12606,0.363 2.50967,0.2699 2.70369,-0.6547 2.9999,-5.3734 2.90467,-7.5227 0.19484,0.8826 0.32069,1.8488 0.30322,2.811 -0.0332,1.7802 -1.12639,5.0194 -2.75784,5.6469 -0.71306,0.2743 -1.32126,-0.1902 -2.33667,-0.043 -0.98393,0.1431 -1.51349,0.145 -1.89712,-0.06 -1.99672,-1.0749 -4.02229,-5.8081 -3.0462,-8.3458 z m 7.31669,2.1077 c -1.41039,-1.1345 -2.81378,-1.6188 -5.18888,-2.1303 -0.6449,-0.1357 -0.6379,-0.2753 -0.0341,-0.5335 2.05267,-0.8807 1.94431,-0.9948 3.7785,-1.1706 -1.30987,-0.4363 -2.01943,-0.4707 -3.47614,-0.6825 -0.194,-0.03 -0.31546,-0.057 -0.34866,-0.1066 -0.39237,-0.6013 2.32179,-1.3934 3.01563,-1.4152 -1.33349,-0.2073 -2.28334,-0.4954 -3.02262,-1.5074 0.99007,-0.5893 3.92093,-0.7759 5.278,-0.6257 -1.22512,0.3114 -2.23091,0.5751 -2.9903,0.9045 0.81006,0.5061 2.72379,1.0647 3.65093,1.4523 -1.51524,0.1974 -3.48226,0.4535 -4.68904,0.9252 0.92103,-0.084 2.826,0.5541 3.85976,0.9326 0.40371,0.1475 0.44042,0.2127 -0.028,0.3622 -1.27055,0.4037 -2.06924,0.6835 -3.34856,1.0729 2.28335,0.7758 2.82864,1.5154 3.54345,2.5222 z m -4.38583,-10.3211 c 1.35271,0.045 2.97718,0.1369 4.25301,-0.1514 -0.9796,1.3989 -3.32062,1.3364 -4.25301,0.1514 z m -2.0439,-1.3211 c 0.37836,0.288 1.23299,0.863 0.94286,-0.019 -0.18874,-0.5746 -0.51731,-1.0427 -0.3408,-1.6032 0.27962,-0.8882 4.76944,-0.9797 5.65464,-0.7658 1.69962,0.4091 -0.13024,2.7766 1.27056,2.5349 -0.17477,0.4673 -0.63441,0.5712 -0.81703,0.4336 -0.3312,-0.2508 -0.41858,-0.7931 -0.49023,-1.2593 -0.048,-0.3061 -0.097,-0.4745 -0.19836,-0.5687 -0.37925,-0.3512 -4.01881,-0.126 -4.36223,0.287 -0.0813,0.097 -0.13196,0.2193 -0.16166,0.3541 -0.12675,0.5749 0.11179,1.3916 -0.0778,1.5617 -0.12755,0.1149 -1.0888,0.1275 -1.41996,-0.9551 z m -3.53995,-43.8712 c 0.87734,0.1538 2.14441,0.8312 2.93612,1.8153 0.10482,-2.5017 -1.44797,-2.7179 -2.93612,-1.8153 z m -2.79715,4.5367 c 0.11444,1.6089 -0.0165,1.4676 1.26617,2.2617 1.26273,0.7813 2.5394,1.6414 3.90433,1.1433 0.85375,-0.3113 1.32737,-0.9949 1.69089,-1.7652 0.76461,-1.6281 1.01191,-2.8365 2.07013,-4.2977 -0.67811,1.8975 -0.88171,2.945 -1.01191,4.351 -0.19661,2.1095 -1.10453,3.2077 -2.42141,3.5309 -2.75698,0.6718 -2.86795,0.2769 -4.30804,-1.5102 -0.28312,-0.3503 -0.27002,-0.6536 -0.64927,-0.8636 -1.03025,-0.5704 -0.65625,-1.1761 -0.54089,-2.8502 z M 273.95668,1230.2659 c -2.27025,-4.0544 -14.04615,-12.1329 -20.91804,-21.6964 -5.09014,-7.4565 -6.97675,-9.298 -9.5109,-11.039 -14.01644,-9.6431 -23.26084,-25.3738 -34.50193,-38.4119 -0.80831,-0.9399 -2.60668,-1.7665 -3.42983,-2.6772 -1.21027,0.6672 -2.26064,-1.1391 -2.26064,-1.1391 -2.05965,0.8195 -1.91458,-2.028 -1.91458,-2.028 -0.91491,-1.2956 -0.35478,-2.9678 -0.35478,-2.9678 -0.31022,-2.1991 2.42054,-3.0204 2.42054,-3.0185 1.08619,-1.261 3.38789,-0.8963 3.38789,-0.8963 0,0 -0.0228,-5.4566 -1.12552,-7.3541 -1.10105,-1.8987 -0.60295,-5.2631 0.58373,-3.9267 1.18756,1.3373 3.39226,8.8645 4.2259,10.7186 0.74189,1.6513 3.65092,7.2313 6.37469,11.1341 0.0909,0.1137 0.18175,0.2428 0.27351,0.3885 6.3441,8.7776 28.05908,22.6151 31.72486,29.5747 2.28858,4.3468 15.16553,9.7219 20.25304,16.6785 4.94507,6.7569 8.37229,3.0684 15.97471,10.352 0.28924,0.3178 0.43344,1.0531 0.43869,2.3251 0.008,2.5641 -0.56451,5.8938 -1.55109,9.3433 -3.31623,11.5978 -5.87659,27.8292 -7.01609,26.1163 -0.5138,-4.183 -1.18404,-7.5726 -1.30026,-11.9355 -0.10485,-3.8921 -0.14943,-7.6548 -1.7739,-9.5406 z m 25.30124,215.6099 c 3.99258,-1.234 5.73065,-6.2967 6.10115,-9.9157 1.10279,2.7914 -0.0175,10.6635 -6.10115,9.9157 z m 0.82228,0.8392 c -0.82404,-0.1205 -1.87702,-1.9908 -3.42024,-2.1818 -1.92594,-0.2372 -2.83123,1.0511 -3.81518,1.0466 1.54233,1.1344 1.80973,0.2733 3.37304,0.5486 1.91371,0.3359 1.0958,1.2641 3.86238,0.5866 z m -5.1181,-10.982 c 0.74887,-0.507 3.84229,-1.31 7.27037,-0.833 -2.11383,-1.7963 -4.45399,-2.5947 -6.78101,-4.0025 -1.34924,-0.8167 3.6544,-1.5535 6.51624,-0.8239 -1.37019,-0.5043 -6.01466,-3.2023 -6.00767,-3.2068 0.83714,-0.6447 5.98844,-0.2861 7.03794,-0.015 -1.84646,0.2318 -2.53591,0.4293 -4.51865,0.4029 2.61542,0.6031 3.4805,1.8804 5.39946,3.3717 -2.37336,0.4255 -3.78547,0.1774 -6.1597,0.1711 2.58308,0.4382 5.21071,2.2046 6.08805,4.9904 -2.42491,0.7161 -5.82415,0.2453 -8.84503,-0.055 z m 0.97695,-12.1699 c 1.9443,-1.4268 5.85302,-0.9867 7.05977,1.5092 -2.00634,-0.3821 -5.33042,-0.8799 -7.05977,-1.5092 z m 1.38591,-8.505 c 0.12756,0.8627 1.00667,1.6777 2.45114,2.1412 1.33611,0.4282 4.03103,0.9533 5.31559,0.1467 -3.56704,-0.7968 -5.35578,-1.4531 -7.76673,-2.2879 z m -5.24827,6.2996 c -1.56419,0.043 -1.34923,-1.8143 -3.91397,-1.7783 -1.41037,-0.09 -1.75816,0.3732 -2.38907,0.8403 -0.76985,0.5695 -2.11731,0 -2.55337,-0.5814 -1.07569,-1.4439 -1.60788,-3.2347 -2.29996,-4.8092 -0.2508,2.0407 1.07045,6.2535 3.44906,6.9368 1.09231,0.3134 1.2531,-0.7721 3.45082,-0.7277 2.80503,0.058 1.83592,1.5599 4.25649,0.1192 z m 1.65679,-11.8042 c 1.16657,3.2819 1.4095,7.5399 -1.36058,10.3174 1.27318,-4.0633 1.30291,-6.5918 1.36058,-10.3174 z m -2.52628,0.2288 c -0.11272,-3.1449 -5.40472,-3.6159 -6.26631,-3.4582 1.38677,-1.6959 5.49296,-0.3324 5.44402,-1.1001 -0.12582,-1.9909 -5.3383,-2.0924 -5.33394,-2.3511 0.0121,-0.6004 4.60515,-2.116 6.0802,-0.6231 -0.9787,-2.8753 -6.75479,-2.1466 -7.8069,1.1708 2.04479,0.582 2.10944,0.5485 4.16735,1.1651 -1.80622,-0.088 -3.66576,0.2942 -4.36922,2.7106 2.43453,0.1766 5.7691,0.7317 8.0848,2.486 z m -6.61237,-10.6306 c 1.7477,-0.2779 4.21192,-0.5558 6.71113,-0.3395 -1.42875,-1.6776 -5.83117,-1.7518 -6.71113,0.3395 z m 0.29536,-9.6963 c 1.85516,1.0003 7.24416,-0.5904 8.63531,-1.9024 0.0121,2.4174 -7.56223,5.0548 -8.63531,1.9024 z m 8.36879,-10.0162 c -0.20011,-7.242 -0.0403,-13.7905 0.69382,-21.1421 0.14246,-1.2965 0.2438,-2.5832 0.41946,-3.8514 0.17914,-1.2983 0.4378,-2.5821 0.90093,-3.836 0.26389,-0.7161 0.57149,-1.3589 1.01102,-2.2054 1.00057,-1.945 1.00319,-3.1001 1.33438,-5.2493 0.39584,-2.5469 0.60818,-4.536 0.60644,-6.8084 -0.004,-3.5445 -0.35479,-7.3326 -0.45003,-10.9486 -0.0909,-1.5039 0.12141,-1.7527 0.5811,-3.1797 0.83977,-4.0696 0.3976,-4.6381 -2.18459,-7.8504 -0.7585,-0.909 -1.26708,-1.5581 -1.71011,-2.2155 -1.57904,-2.3484 -2.11384,-4.5359 -4.25475,-6.6173 -3.59762,-3.4918 -6.02601,-5.7698 -11.75405,-6.0478 -4.40505,-0.2118 -4.98877,-1.1353 -5.7158,3.6533 -0.36179,2.3674 -0.14683,4.255 0.60381,7.2644 0.42732,1.7166 0.83102,3.4115 1.16921,5.1888 0.80218,4.2289 1.23299,6.8237 3.1065,10.8651 1.33961,2.8909 1.80711,5.0664 2.54114,8.5984 0.31894,1.5228 0.58722,3.0429 0.85462,4.7531 -0.48849,1.2566 -0.78822,2.4454 -0.97608,3.6188 -0.44392,2.7895 -0.45178,5.5842 -0.22371,8.3673 0.67111,8.2117 2.84349,16.7014 4.239,25.0742 0.49287,2.9605 0.83542,8.7973 0.82317,11.3053 -0.93762,0.1883 -0.43691,1.1463 -0.44217,1.6233 l -0.19661,2.6961 c 2.7054,-0.3204 9.62887,-3.1415 9.34574,1.8234 0.83976,-1.4439 0.86687,-1.8531 1.2435,-3.49 0.72091,2.8419 0.36438,5.4955 -1.68391,7.3615 -0.30759,-1.7185 0.18525,-3.368 -1.12201,-4.468 -0.72616,-0.6121 -2.04654,-0.373 -3.92443,-0.035 -2.34451,0.4209 -4.82798,0.9887 -5.26141,2.1213 -0.42555,1.1082 0.47713,1.8885 0.92889,3.4088 -0.30145,1.3833 -1.17006,2.7811 -1.44183,3.5926 -0.86598,2.5809 -1.36495,4.8787 -1.66641,7.0888 -0.77685,5.6921 -1.34659,13.1632 6.25408,13.5514 1.01192,0.051 1.9146,0.1302 2.68533,-0.028 3.71121,-0.7577 5.30683,-3.7616 5.50257,-7.4229 0.2237,-4.18 -0.90705,-8.0432 -0.0323,-11.8993 0.5846,-2.5777 2.44852,-5.9908 1.97576,-8.3747 -0.34866,-1.7572 -0.87471,-2.0451 -0.97346,-4.1556 -0.0934,-1.988 0.16778,-2.4815 -0.15642,-3.462 -0.26303,-0.7923 -0.55314,-1.1281 -0.92452,-1.8623 -0.25691,-0.928 -0.0796,-1.4034 -0.83888,-1.2006 -0.35915,-0.9624 -0.85899,-4.572 -0.88696,-5.6052 z m 13.18715,38.0833 -0.18439,0.8692 c 0.80046,3.1698 0.2246,5.0907 -0.57234,8.0893 0.24729,3.9818 1.10628,9.4999 0.68946,13.336 -0.69121,6.3522 -5.13908,9.6503 -11.33811,8.4065 -4.38232,-0.8774 -5.61968,-4.3159 -5.15042,-8.0551 0.31545,-2.4887 1.34658,-4.9615 2.44676,-7.2556 0.5208,-1.0929 1.44708,-4.9522 1.44619,-6.1528 -7.9e-4,-1.0712 0.15382,-1.3589 0.20187,-2.3133 0.0691,-1.3525 1.65942,-1.5281 2.14615,-3.3761 0.0209,-0.014 0.42906,-1.1625 1.46456,-1.063 0.1433,0.014 0.30061,0.051 0.46838,0.1068 1.64108,0.5441 1.57817,0.6663 3.60897,0.7588 1.01629,0.045 1.89887,0.015 2.37423,0.2706 0.32595,0.1811 0.47973,0.517 0.35915,1.1362 -0.17389,0.8864 -1.18405,4.6481 0.53568,2.5829 0.60381,-0.7243 1.32737,-2.3674 1.38503,-3.6846 -0.32595,0.9921 -0.62043,1.4251 -1.32562,2.3313 0.32333,-0.8928 1.27929,-3.3989 7.9e-4,-3.8623 -1.08618,-0.3947 -2.86097,-0.4374 -4.30454,-0.8946 -1.4436,-0.4564 -3.25681,-1.4567 -4.06426,0.3167 0.28053,-1.7824 0.28664,-3.8965 0.004,-5.7326 l 8e-4,0 c 0.80829,-2.3747 0.96211,-5.0004 1.69701,-7.3116 0.98044,-3.0811 1.30289,-5.5889 1.32474,-8.315 0.0421,-5.5218 -0.97609,-10.6353 -1.29241,-16.1164 -0.17391,-3.0193 0.0288,-6.181 0.29535,-9.2836 0.47449,-5.5092 0.82054,-4.4038 -0.84151,-8.8717 -1.29156,-3.4776 -0.28224,-8.5085 -0.16166,-13.1225 3.35554,-4.3809 3.00252,-10.6579 2.22131,-16.8776 -0.42994,-3.4178 -0.1739,-3.8659 0.002,-6.9406 2.20034,0.1657 4.17699,-0.6711 6.73733,-1.3328 4.68293,-1.2067 8.65979,-2.5819 12.38148,-5.5389 -0.5278,6.9614 -0.92975,10.5764 -2.1287,17.459 2.67309,-8.3827 3.92619,-11.0156 5.04033,-19.7051 0.92716,-0.7888 1.26533,-0.8178 1.97839,-1.8724 -0.35916,4.3086 -0.49285,4.17 -1.11241,7.4983 -2.15488,11.5668 -5.6756,23.0397 -9.09496,34.2489 0.1844,2.8166 0.47014,5.5263 0.65451,8.2689 0.22632,3.3361 -0.0121,6.092 -0.41681,8.9178 -0.6318,4.4272 -1.46805,8.7956 -2.30345,13.1829 -1.46019,7.1089 -2.92301,14.218 -4.3631,21.3295 -0.18525,1.015 -1.37193,7.4375 -1.29067,7.7753 0.083,0.3469 0.51732,0.3187 0.48062,0.7931 z m -4.29492,-15.5832 c 1.31688,-7.0573 2.4345,-13.1748 3.21136,-19.9089 0.37837,-3.2873 0.76987,-9.0762 -1.1858,-11.9048 -2.07713,-2.9966 -2.53327,-2.1401 -3.09515,-4.065 -0.35915,-1.2277 -1.18056,-5.3933 0.25867,-5.912 0.92364,-0.3332 1.33696,-0.1964 1.80709,0.1865 1.51,1.2177 3.88162,0.5487 5.66164,0.2916 -2.61193,2.3176 -3.124,2.6698 -5.27627,2.1909 -0.36876,0.3821 -0.55575,0.7877 -0.62304,1.2213 -0.0979,0.6185 0.0752,0.9797 0.26476,1.732 0.67812,2.6826 2.3052,1.5138 3.51547,6.1348 0.55751,2.1267 0.72878,4.8737 0.51906,7.9218 -0.51207,7.4286 -2.98068,16.5584 -5.05779,22.1118 z m -19.76982,-56.8444 c 0.65712,2.6338 1.20766,4.6828 1.8639,6.6744 0.59772,1.8227 1.21027,3.4533 1.80274,5.0747 2.32792,6.3447 2.54027,9.4401 3.22187,16.0828 0.20709,-7.5958 0.97869,-10.2984 -1.85954,-17.4952 -0.68773,-1.7465 -1.47942,-3.4657 -2.62067,-5.6403 -0.81266,-1.5483 -1.61224,-3.1055 -2.4083,-4.6964 z m 9.62887,-10.7801 c 1.27318,1.3998 3.45868,4.2599 3.45868,5.9981 0,0.6656 -0.22022,1.3038 -0.82928,1.5209 -2.73514,0.9761 -7.62515,-2.5349 -8.79786,-3.6811 -0.47536,-0.4663 -0.18961,-0.7668 0.36789,-0.4318 1.19455,0.7134 4.67244,2.5641 6.31178,1.7754 1.12637,-0.5415 -0.21847,-4.2717 -0.51121,-5.1815 z m -0.99791,-23.4508 c -0.0683,4.5187 1.97313,5.9239 3.51021,10.0795 1.54146,4.172 0.97783,6.1141 1.31774,10.4904 -0.91053,-3.3353 -2.01768,-6.5964 -3.12486,-9.8566 -1.3658,-4.0243 -3.81168,-7.0293 -1.70309,-10.7133 z m 18.68274,-94.7311 -0.79694,-0.3268 c -0.98046,-0.4002 -0.76811,-0.2308 -0.67549,-1.3681 0.16342,-1.9871 0.31982,-3.9744 0.6414,-5.9435 0.26128,-1.599 0.65801,-3.2042 1.00667,-4.786 0.49022,0.035 0.73579,0.1124 1.19104,-0.1176 1.35971,-0.6844 0.99881,-3.3063 1.76779,-5.1499 0.43867,-1.0472 0.66064,-2.6262 0.0402,-3.0781 -0.24029,-0.1756 -0.95685,-0.1838 -1.45581,0.173 0.46836,-2.7316 0.77771,-4.2452 0.70168,-7.0249 -0.0209,-0.821 -0.0437,-1.6441 -0.0654,-2.4652 -0.0254,-0.9824 0.12141,-1.9511 0.0429,-2.9053 -0.0752,-0.8854 -0.33731,-1.7228 -0.97873,-2.6464 -0.86682,-1.2476 -4.92671,-3.2694 -6.4332,-3.8432 -1.1465,-0.4381 -2.34977,-0.7369 -3.77675,-0.8103 -2.63026,-0.1343 -4.36485,1.1968 -6.42099,2.5765 -2.59969,1.8977 -4.25912,2.8773 -5.50696,6.1664 -1.13862,2.9962 -0.61694,6.3106 -0.50858,9.4558 -0.3373,0.052 -0.55315,0.1109 -0.70431,0.1992 -0.55227,0.3232 -0.66762,1.4765 -0.65713,2.6065 0.0166,1.8199 0.59683,5.0076 2.77882,5.2784 0.24118,0.03 0.55401,0.019 1.05384,-0.014 0,0.3196 0,0.6401 0,0.9587 0.0568,1.8315 0.0917,3.3644 0.0472,4.9587 -0.02,0.7152 -0.0559,1.4448 -0.11446,2.219 -0.0778,1.0438 0.0515,0.8701 -0.67112,1.5671 1.12377,6.0098 2.14528,20.2713 10.32008,20.1626 5.90806,-0.08 8.66765,-10.0975 9.17448,-15.8421 z m -29.4415,78.1965 c 2.45638,0.7633 5.6485,0.4245 7.55261,0.7759 3.81521,0.7035 8.39325,0.603 12.17788,-0.3993 4.82885,-1.2783 8.83804,-0.9488 13.93517,-1.7337 -3.78549,1.396 -9.84996,4.7676 -13.92991,5.0927 -3.58453,0.2878 -6.85008,-0.2481 -10.67839,-0.9027 -2.7884,-0.4771 -5.7394,-1.1382 -9.05736,-2.8329 z m 38.43858,-35.761 c -1.28192,4.9089 -1.81672,6.5485 -2.0946,12.3194 -0.049,1.0185 -0.25078,2.8038 -0.23855,4.6118 0.0236,3.3164 -0.049,6.9152 0.22456,7.3788 1.0792,1.8307 3.47615,-18.3111 2.73776,-24.3871 -0.24206,-1.9879 -0.32071,-1.1036 -0.62917,0.075 z m -39.0625,0.7134 c 0.40983,8.2948 1.03549,16.5212 1.40512,24.8676 0.0324,0.756 0.0463,1.4531 0.61257,0.2455 1.12115,-2.3949 1.62536,-10.5576 0.81618,-18.1752 -0.62654,-5.8921 -1.13252,-7.2937 -1.91633,-8.324 -1.57381,-2.0697 -1.0093,-0.4789 -0.91754,1.3861 z m 30.4001,-58.4024 c 0.0611,-0.3929 0.38361,-3.96 0.67024,-3.96 0.0542,0 0.055,0.2861 0.0499,0.5476 -0.004,0.2127 0.009,0.2643 0.0558,0.2282 0.27266,-0.2136 0.57062,-0.9626 0.82142,-1.0376 1.13687,-0.3466 0.15206,1.4551 -0.24992,1.9103 -0.76548,0.8585 -0.56624,0.4392 -0.72528,1.6334 -0.0682,0.5132 -0.0498,0.8429 -0.22546,1.0863 -0.58809,0.8132 -0.46837,0.051 -0.39672,-0.4082 z m -0.10136,-9.8414 c -0.24903,-0.039 -1.21639,-0.438 -1.53447,-0.5631 -0.81354,-0.3197 -2.41004,-0.6137 -2.87581,0.3866 -0.21585,0.4645 -0.43604,0.7613 -0.21672,1.216 0.60472,-0.3341 1.3195,-0.414 1.69177,-0.3687 1.75991,0.2165 0.94987,1.187 2.47298,1.2468 -0.81181,0.9588 -1.02939,0.6275 -1.87615,1.0332 -0.56362,0.2733 -1.00666,0.2751 -1.56156,0.058 -0.50421,-0.1956 -0.72879,-0.6465 -1.28628,-0.7525 0.083,-0.1874 0.1669,-0.3719 0.25079,-0.5595 0.0479,-0.1575 -0.19225,-0.4273 -0.9892,-0.9741 -0.38799,-0.2661 -0.4343,-0.4282 -0.47275,-0.5984 -0.0628,-0.2788 0.0183,-1.1328 0.18789,-1.3808 0.35564,-0.5205 0.70169,-0.9451 1.4392,-1.0828 0.47538,-0.088 1.72584,-0.048 2.63378,0.016 0.63091,0.045 1.18667,0.1767 1.41912,0.4547 0.36264,0.4336 0.75236,1.3001 0.71741,1.8668 z m -15.17166,-0.3252 c -0.35913,0.1631 -0.73403,0.3741 -1.06171,0.4312 0.47975,-0.7623 0.92977,-2.0417 1.77216,-2.3042 0.81704,-0.2544 1.98362,-0.2371 3.02437,-0.1449 0.63614,0.057 0.90967,0.084 1.32649,0.238 0.54091,0.2021 0.76637,0.7787 0.90007,1.274 0.22806,0.8555 0.32244,1.9112 -0.0446,2.7369 -0.2368,0.5334 -0.93151,0.1937 -1.52222,0.097 -1.10716,1.0395 -2.18898,1.2305 -3.45081,0.1026 -0.27003,-0.2419 -0.64314,0.014 -1.00491,-0.4573 0.4841,-0.1025 0.46749,-0.1719 0.68597,-0.3439 0.21844,-0.1722 0.67459,-0.5142 0.92014,-0.6728 0.30324,-0.1947 0.88347,-0.2518 1.32475,-0.2408 0.72093,0.019 1.05473,0.4337 1.60526,0.8855 -0.39585,-0.88 0.12501,-1.7573 -1.51088,-1.8326 -0.33557,-0.018 -0.64227,-0.027 -0.95075,-0.027 -0.67373,0 -1.38591,-0.026 -2.01334,0.2579 z m -5.57859,3.3519 c 0.63789,0.06 1.08355,0.078 1.40163,0.3359 0.51819,0.4219 0.55315,1.1515 0.21061,1.7021 -0.0987,0.1584 -0.24906,0.2597 -0.62918,0.5596 -0.16078,0.126 -0.32069,0.2524 -0.48237,0.3784 0.10577,-0.6573 0.13896,-0.9861 0.12677,-1.5511 -0.0101,-0.5785 -1.0757,-0.4172 -1.18931,-0.3393 -0.17127,0.1164 -0.39411,0.6681 -0.39149,0.89 0.002,0.2154 0.062,0.2426 0.36527,0.334 0.45003,0.1356 -0.11099,1.1805 0.11619,1.6062 0.21498,0.4017 0.85724,0.622 1.09755,0.9316 0.28575,0.3684 0.27965,0.1729 0.17128,-0.133 -0.0768,-0.2174 -0.0664,-0.4247 0.0576,-0.7406 0.13893,-0.3523 0.39934,-0.2418 0.87384,-0.6112 0.27789,-0.2155 0.46313,-0.4772 0.59771,-0.7677 0.37837,-0.8195 0.37575,-1.9076 0.34778,-2.805 -0.02,-0.6771 -0.0454,-1.3533 -0.0708,-2.0279 -0.0568,-1.464 -0.0839,-2.6573 -0.0429,-3.9547 0.07,-2.228 0.8852,-3.5226 3.117,-4.2669 1.48203,-0.4962 1.74157,-0.1 2.3017,-0.3504 1.25134,-0.5649 1.03287,-0.9423 1.83156,-1.2366 1.24523,-0.4592 2.36987,-0.2981 3.51198,0.032 1.01716,0.2933 1.33261,0.4054 1.91898,0.4219 0.56186,0.017 0.93849,0.039 1.27056,0.087 1.52309,0.2155 2.21693,0.7851 3.00077,1.6377 0.50157,0.546 0.98394,1.0556 1.4829,1.5628 1.73284,1.7627 0.92715,4.763 1.06086,7.1704 0.32681,-1.6106 0.62478,-5.2085 0.23069,-6.8191 -0.14419,-0.5895 -0.36004,-1.7402 -0.88608,-2.5197 -0.19399,-0.2861 -0.40285,-0.5461 -0.62131,-0.7839 -0.87995,-0.9563 -1.64719,-1.0568 -2.42229,-1.457 -1.14472,-0.5909 -1.787,-1.2368 -2.68008,-1.2157 -0.74364,0.016 -1.12987,0.043 -1.43745,0.024 -0.36528,-0.024 -0.61869,-0.1164 -1.23563,-0.3703 -0.28661,-0.1176 -0.57585,-0.1901 -0.86422,-0.2381 -0.98658,-0.1649 -1.6568,-0.1484 -2.36548,0.019 -0.73666,0.1739 -1.06436,0.2437 -1.37195,0.526 -1.17532,1.0767 -0.87298,0.7768 -2.52015,1.1444 -0.70433,0.219 -1.07834,0.297 -1.52138,0.5333 -0.53391,0.2807 -0.90793,0.6011 -1.21288,0.9669 -2.00284,2.3994 -1.69089,7.2683 -1.57293,10.3564 -0.95335,0.029 -1.1421,0.4356 -1.57553,0.969 z m 10.33492,4.4229 c -0.0542,-0.2818 0.21935,-0.9889 0.73928,-1.1816 0.57761,-0.212 1.17793,0.079 1.6131,0.4652 0.59422,0.5306 1.56942,0.536 2.04566,0.1459 0.31722,-0.2591 0.71655,-0.4855 1.16311,-0.2446 0.38885,0.2102 0.46837,0.7215 0.43602,1.1146 -0.27174,-0.036 -0.9114,0.1233 -1.1718,0.2725 -0.37052,0.2119 -0.83102,0.5667 -1.36668,0.5514 -0.37926,-0.014 -0.81356,-0.2292 -1.51265,-0.8511 -0.92626,-0.6066 -1.1587,-0.4047 -1.94604,-0.2723 z m 0.26127,9.3324 c 1.13427,0.5892 1.43224,0.3475 2.6897,0.3357 1.22862,-0.014 1.37193,0.09 2.55511,-0.3357 -0.52692,1.08 -1.1421,1.3209 -1.91109,1.387 -1.31251,0.112 -2.66959,0.082 -3.33372,-1.387 z m -1.93118,-4.5821 c 0.84763,-0.5334 1.21378,-0.6819 1.71797,-0.8539 1.60002,-0.5423 1.67779,0.044 2.76485,-0.014 0.84762,-0.039 1.30726,-0.6005 2.37597,0.077 0.37313,0.2374 0.63704,0.4202 0.97607,1.0692 -2.39431,-0.3529 -5.06128,-0.3864 -7.68979,0.1372 0.66936,1.0042 0.86683,1.523 1.43134,2.0425 0.42383,0.3903 0.7454,0.6501 1.20679,0.7451 0.28398,0.061 0.94724,-0.06 1.60874,-0.069 0.62915,-0.015 1.26095,0.09 1.5694,0.028 0.45878,-0.093 0.8494,-0.2987 1.4034,-0.7279 0.6353,-0.489 0.82491,-1.0213 1.78177,-2.2753 -0.73054,-1.1081 -1.28542,-1.9565 -2.35939,-2.5975 -0.69643,-0.4173 -1.01015,-0.3268 -1.56241,-0.1275 -0.77946,0.2819 -0.77509,0.1704 -1.57117,-0.019 -0.63702,-0.151 -0.75937,-0.2299 -1.4095,0.037 -0.89308,0.3666 -1.99849,1.3625 -2.24404,2.544 z m -5.99806,0.2814 c 2.10423,9.8966 12.45227,17.0047 16.54272,4.8339 -1.96964,3.1216 -2.80153,3.8105 -4.84807,4.0967 -6.33274,0.8874 -9.32915,-3.9375 -11.69465,-8.9306 z m 13.96838,14.4352 c -0.79171,2.1576 -1.59913,4.3785 -2.77706,6.3484 -0.56014,0.9362 -1.0731,0.8249 -0.53043,-0.8871 0.70082,-2.2173 1.61224,-3.8496 2.7229,-5.8641 1.28017,-2.3223 1.38415,-1.7773 0.58459,0.4028 z m -8.88435,0.2464 c 0.45178,1.148 0.90268,2.2968 1.35357,3.4458 0.62306,1.5899 0.1975,2.6037 0.55402,4.2361 0.1739,0.7988 0.41333,1.5384 0.75937,2.0343 0.2438,0.3504 1.53447,1.1336 1.94517,0.89 0.16167,-0.096 0.44655,-0.3828 0.18962,-0.9976 -0.11967,-0.2851 -0.41244,-0.4112 -0.86509,-1.1798 -0.29099,-0.4933 -0.47887,-1.0177 -0.65626,-1.9465 -0.11793,-0.6192 -0.17477,-1.1751 -0.41246,-2.0406 -0.11539,-0.4184 -0.30759,-0.8646 -0.65189,-1.5111 -0.52518,-0.9896 -1.33698,-1.7122 -2.21605,-2.9306 z m -7.46523,-5.693 c -0.68422,0.6191 -1.136,0.9705 -2.00286,1.3445 l -0.02,0.014 -0.0192,0.015 0.004,0.014 0.002,0.014 0.004,0.015 0.004,0.014 0.004,0.015 0.002,0.014 0.004,0.014 0.0683,0.2535 0.004,0.014 c 0.0262,0.1082 0.0472,0.2191 0.0604,0.354 0.0857,0.8693 -0.0533,2.9119 -0.27091,4.6509 -1.50739,12.0569 -2.12518,19.3386 -7.52815,30.7308 -0.49546,1.2123 -1.46629,3.1725 -1.85603,3.6432 -0.76373,0.9269 -1.82197,-0.1656 -2.01247,-1.0447 -0.17565,-0.8102 -0.004,-1.9593 0.4177,-3.579 -1.11939,1.9475 -1.72757,4.0498 -1.51175,5.5019 0.36177,2.4526 0.88084,5.0902 1.20941,7.9889 l -0.44828,5.1516 0.0813,8.3783 -0.11445,7.1714 c -0.0367,2.4671 -0.1337,2.085 0.81181,4.209 0.49984,1.1192 1.2391,1.7284 2.88631,2.0018 7.76408,1.2937 15.55439,3.655 24.49468,2.7324 -7.71779,2.1946 -18.74655,1.7627 -25.76528,-0.9271 -0.48672,-0.1847 -0.85983,-0.4474 -1.04161,-0.6104 -0.50244,-0.4498 -1.01452,-0.7595 -1.10452,0.018 -0.0892,0.7832 -0.0134,1.6994 0.0358,2.3132 -2.89242,1.033 -3.89646,2.6871 -5.02371,4.5504 -1.02066,1.6832 -0.95163,3.6378 -1.30728,5.5678 -0.83276,4.5179 0.88432,5.3273 2.69581,7.828 -1.73809,-3.6104 -1.52574,-6.3286 -0.84065,-9.7671 0.43344,-2.1802 1.09406,-4.2045 3.46742,-4.439 0.84936,-0.083 1.63932,-0.027 2.70366,-0.038 9.73637,-0.1 11.65706,2.6101 18.93005,11.7199 3.59674,4.506 6.80898,6.6391 3.2673,14.8596 11.16247,-5.4484 17.20771,-4.4154 24.84247,-12.4097 1.87089,-6.3947 -4.11929,-19.3341 -5.72805,-20.588 1.55371,-1.1072 1.67778,-1.856 1.70925,-3.7998 0.14682,-9.0753 1.38154,-18.1028 2.2851,-27.1249 0.10402,-1.0058 0.0411,-1.7128 -0.0166,-2.7178 -0.0479,-0.8754 -0.42469,-3.8171 -0.9324,-4.5286 0.49287,-4.9215 0.9656,-7.0084 0.75939,-12.17 -0.0507,-1.2684 -0.19837,-2.6862 -0.17915,-3.9583 0.0182,-1.2412 0.20448,-2.3991 0.72705,-3.3081 2.94833,-5.1343 9.7844,-11.4239 15.62516,-14.9432 6.61239,-3.9889 11.82659,-10.9394 16.18794,-15.3675 6.8387,-5.0865 21.31301,-23.1938 26.30615,-29.4254 4.99576,-6.2343 10.86362,-11.4157 10.86362,-11.4157 1.12376,0.6227 1.77828,-1.8831 1.77828,-1.8831 1.91283,0.7606 1.77912,-1.8824 1.77912,-1.8805 0.85025,-1.2015 0.4378,-3.7156 0.4378,-3.7156 -0.4937,-1.54 -2.35764,-1.8442 -2.35764,-1.8442 -1.0084,-1.1726 -3.14319,-0.833 -3.14319,-0.833 0,0 0.0182,-5.0664 1.04337,-6.8311 1.02151,-1.7627 0.56101,-4.8852 -0.54178,-3.6448 -1.10193,1.243 -3.15196,8.2314 -3.92704,9.9554 -0.77423,1.7229 -3.38353,3.205 -5.12335,8.8137 -1.74244,5.6077 -11.2918,14.0621 -20.0713,20.7908 -8.78037,6.7278 -12.22591,12.5565 -15.39535,15.4609 -6.63333,2.1222 -12.81664,5.817 -17.14741,11.307 -5.02547,2.3171 -11.36519,5.2847 -15.82703,9.4268 0.50069,10.4895 3.94976,27.3284 7.71952,36.9163 -7.15415,-4.8755 -10.07016,-25.2888 -10.01949,-36.7126 l -1.25833,-0.4517 c -0.52779,6.869 -2.13655,19.65 -10.51233,19.344 -2.57434,-0.094 -5.00974,-1.8416 -6.48302,-4.4355 -2.6792,-4.7142 -2.8802,-13.8084 -3.73044,-18.6594 l 0.0411,-0.036 z m 30.11436,18.5718 c 0.79868,-1.6551 0.95423,-3.6006 1.59213,-5.3308 0.54614,-1.4794 0.88607,-2.3231 1.35095,-2.9671 0.7087,-0.982 1.71275,-1.5037 4.1892,-3.1207 3.38177,-2.2091 7.39009,-3.7772 11.0917,-5.932 -1.22863,1.0648 -2.64076,1.7611 -3.84578,2.8566 -2.53852,2.3076 -8.21412,5.9798 -9.70053,7.8722 -1.32561,1.6865 -1.31862,2.6781 -1.84642,3.6776 -0.41596,0.7866 -1.35359,1.4132 -2.83125,2.9442 z m 11.32586,-22.3988 c 5.38113,0.1476 7.52378,-1.2467 11.92095,-3.129 -4.91185,6.0587 -7.50279,6.5323 -11.92095,3.129 z m 21.9151,-16.7267 c 4.54224,-5.9591 12.44264,-13.23 18.24932,-16.3172 -4.41815,6.2931 -12.34475,13.2464 -18.24932,16.3172 z m -77.7047,31.4933 c 3.1135,2.3059 4.0389,9.4528 2.48084,15.6001 0.29361,-3.2917 -0.5776,-6.6823 -1.01105,-8.3283 -1.71097,-1.9765 -2.63374,-4.0008 -4.01355,-5.6141 -5.51656,-6.4507 -9.12641,-9.8758 -10.43804,-11.6657 -4.50816,-6.1539 11.30928,9.3478 12.25389,9.6421 0.31982,0.1 0.3609,0.094 0.72791,0.3659 z m -57.64391,-64.0058 c 0.63004,0.8356 1.68127,2.1069 2.47909,2.9788 4.92322,5.3696 12.75548,11.0852 18.97899,16.3634 3.29613,2.7967 5.95611,5.5689 8.83541,8.7721 -3.04009,-2.6119 -7.83225,-5.0718 -10.96149,-7.5689 -5.95173,-4.7504 -15.81128,-14.1093 -19.332,-20.5454 z m -12.87343,247.3921 c -0.57937,-0.6103 -0.0516,-0.421 0.16864,-1.1997 0.13196,0.4273 0.10925,0.9127 -0.15816,1.4686 -1.05474,2.1927 -9.45325,2.2481 -11.04102,0.344 -0.25689,-0.3079 -0.43429,-0.6736 -0.51643,-1.0846 -0.20012,-1.0033 0.61082,-1.7501 -0.64402,-2.1005 -1.50826,-0.421 -2.13219,-0.4589 -1.87614,-2.382 0.16778,-1.2577 0.17214,-2.1348 0.13458,-3.4033 -0.0245,-0.9009 0.11966,-1.3381 0.75061,-1.2903 0.0288,-0.2525 0.21671,-2.4932 0.88258,-2.3175 0.0821,0.021 0.0411,0.014 0.12583,0.033 0.57323,-1.8307 2.75784,-8.9858 3.20963,-11.2377 0.48584,-2.4144 0.82577,-4.4833 0.58459,-7.3904 -0.15729,-1.9038 -0.20098,-3.5454 0.0533,-5.8766 0.19484,-1.7637 0.46224,-3.4676 1.03636,-5.3128 0.45439,-1.462 1.06871,-2.8472 2.08849,-4.1302 0.13023,-2.8428 0.0665,-5.0212 -0.26565,-7.8758 -0.12583,-1.0864 -0.1975,-2.1031 -0.0429,-3.31 0.11097,-0.8637 0.40197,-1.5943 0.39935,-2.4508 -0.006,-1.5445 0.0157,-3.1389 -0.1031,-4.6598 -0.0586,-0.7453 -0.11886,-1.312 -0.42906,-2.1512 -0.77945,-2.1196 -0.79082,-2.8944 -0.84762,-5.0711 -0.0411,-1.6514 -0.77248,-2.9768 -1.19018,-4.6163 -0.59246,-2.3269 -0.54266,-3.4931 -0.70517,-5.8496 0.97869,-2.5759 1.55369,-2.8601 4.45047,-3.0402 3.18603,-0.1991 5.46415,-0.7985 7.65749,-3.1471 2.61803,0.3684 3.8213,0.4318 6.02775,0.4935 0.44129,3.4258 0.5715,6.2577 -0.26127,10.2712 -0.27002,1.2992 -0.4911,2.5849 -0.6248,4.0443 -0.20011,2.1864 -0.47362,3.683 -1.32299,6.3033 -0.30674,0.9441 -0.60907,1.8831 -0.86161,2.9153 -0.18613,0.7604 -0.38449,1.4484 -0.67986,2.285 -0.26041,0.7334 -0.44829,1.4251 -0.36613,2.3539 0.11793,1.3356 0.31021,2.6547 0.0576,3.9529 -0.0752,0.3756 -0.19224,0.7631 -0.40283,1.3256 -0.26216,0.6969 -0.10751,5.4701 -0.17827,6.7033 -0.0471,0.7894 -0.0603,1.1027 0.0149,1.8994 0.12582,1.3352 0.10831,2.4118 -0.0848,3.9293 -0.15728,1.2411 -0.4177,2.4617 -0.79607,3.7192 -1.55982,5.1977 -4.68029,10.4389 -6.71461,15.6375 -0.84064,2.1465 -2.35762,6.6661 -3.00077,9.2157 -8.28228,-0.5922 -6.06185,1.778 -6.15272,4.1484 -0.66588,-0.1192 -1.02766,-0.2182 -1.59041,-0.5296 0.38887,0.9252 1.7774,1.7456 2.56999,1.8884 0.25864,-2.2317 -0.91493,-3.6296 0.79954,-3.8496 0.86162,-0.1093 2.99641,-0.3294 4.51691,-0.2633 0.0568,0.035 0.11445,0.079 0.16689,0.1288 0.0848,0.084 0.11445,0.2182 0.10483,0.3838 -0.055,0.9525 -0.9219,1.8804 -1.46805,2.6039 1.27931,1.655 2.8959,3.8869 4.54135,5.0754 0.74451,0.5378 1.5869,0.9778 1.96178,1.8134 -0.65102,1.9015 -2.41005,-1.5553 -4.2259,2.3451 2.03256,-0.5261 2.18635,-1.4035 4.24687,-0.7435 z m -12.59121,-3.6296 c 3.04533,1.2404 0.4911,4.4625 6.47342,4.3856 -2.22655,-0.9933 -3.47964,-2.0462 -4.54396,-3.6315 -0.49374,-0.736 -0.85814,-0.8004 -1.92946,-0.7541 z m 6.15796,-3.9648 c -1.07396,-0.2642 -1.34397,-0.4209 -2.65123,0.2409 1.09667,-0.4065 2.24054,-0.1316 3.4875,0.7453 -0.98656,0.038 -1.91023,0.2625 -2.56211,1.2284 1.75729,-0.8537 2.56736,-0.2825 3.73656,0.2363 -0.92366,0.6156 -2.15491,0.6139 -2.59706,1.5681 1.13424,-0.4915 2.60667,-0.2797 3.67974,-0.2381 -1.29853,0.2626 -3.13535,0.5605 -4.48456,1.0937 0.11098,-1.292 0.65451,-2.0995 1.84293,-2.2824 -0.8485,-0.2364 -1.82719,0.039 -3.18865,0.3939 0.09,-1.4043 1.06348,-2.221 1.97489,-2.1839 -0.83715,-0.2942 -1.17969,-0.3647 -3.16942,0.2652 0.56974,-1.5191 2.55861,-2.3456 3.93141,-1.0674 z m -7.20396,1.6479 c 0.15468,0.3377 0.66325,0.7026 0.97434,1.2812 -0.62917,0 -0.95861,-0.1449 -0.99966,-0.8901 -0.008,-0.1558 -0.0237,-0.3567 0.0254,-0.3911 z m 9.68742,-35.2649 c -1.03637,1.8985 -1.42961,4.0768 -3.2734,6.9542 3.11438,-2.0235 3.46479,-3.2296 3.2734,-6.9542 z m -0.40458,-10.0967 c 0.27002,2.287 1.21375,3.0856 2.92825,3.579 0.28923,0.085 0.38799,0.1288 0.52341,0.2201 0.42819,0.2915 -0.9184,0.5757 -1.33521,0.85 -0.40897,0.268 -0.58986,0.8537 -0.70172,1.3019 -0.12141,0.4872 -0.34341,0.841 -0.83187,0.325 -0.36878,-0.3893 -0.0665,-1.1814 -0.30323,-1.6584 -0.48761,-0.9779 -0.40722,-2.3215 -0.27963,-4.6176 z m 9.08445,-2.4462 c -0.42379,1.0059 -0.99267,2.3241 -1.53533,3.2224 -0.91665,1.5199 -1.12725,0.137 -1.50999,2.8381 -0.50945,3.597 -1.63148,5.0203 -2.32531,7.9191 1.06784,-2.1391 2.39871,-4.1536 3.36518,-6.3292 0.23417,-0.528 0.46139,-1.0586 0.68421,-1.5909 0.88084,-2.1012 1.06172,-3.4775 1.32124,-6.0595 z m 4.26788,-31.3276 c -1.01718,5.5302 -4.90578,20.5519 -8.67203,24.3589 -1.75118,1.77 -3.01913,2.2545 -3.68237,0.3985 -1.00754,-2.8157 0.56361,-9.4223 0.95684,-12.266 -1.19017,3.0818 -4.32114,13.8739 0.15382,15.3848 5.94385,2.0073 11.84754,-23.9513 11.24374,-27.8762 z m -34.64263,26.5617 c 0.25778,1.111 0.91666,2.2064 1.09142,3.3301 0.28488,1.827 0.60121,2.5539 1.7809,3.2935 0.67809,0.4247 1.25571,1.0648 2.35588,1.2323 -1.62447,0.033 -2.05878,0.035 -2.7465,-0.1758 -3.27515,-1.0075 -2.19158,-4.6533 -2.4817,-7.6801 z m 2.28334,-22.2602 c 0.69908,5.2837 1.84817,9.0437 2.97456,13.7995 0.82579,3.4848 0.78471,6.2533 0.98045,9.9146 -0.85898,-3.1151 -2.02294,-6.1708 -2.81902,-9.2989 -1.20852,-4.7404 -1.13599,-7.3698 -1.13599,-14.4152 z m 8.44395,1.5871 c -0.47713,5.0473 0.82052,6.9604 1.884,11.4673 0.81966,-5.1651 -0.83189,-7.8303 -1.884,-11.4673 z m -12.95383,-15.163 c -0.75851,1.3443 -1.42263,4.3701 0.36089,5.8214 -0.0743,-1.9473 0.0254,-3.5199 -0.36089,-5.8214 z m 16.13198,-20.2051 c 6.8151,0.9072 12.84374,0.1456 20.03198,-2.3602 0.65013,0.7523 0.55227,1.3734 -0.54791,2.0225 -0.45526,0.2698 -0.31544,0.1701 -0.13718,0.746 0.083,0.2699 0.12489,0.4573 0.1337,0.6492 0.0157,0.333 -0.0421,0.4327 -0.15641,1.2321 -0.0393,0.2772 0.008,0.5695 0.0866,1.0629 1.35184,1.455 2.59618,2.5594 3.26903,4.0732 -4.08432,0 -9.13514,-1.1696 -13.27365,-2.4705 2.44587,-0.1967 7.48969,-1.8408 8.23247,-3.2449 -3.06457,0.8437 -7.80866,1.6243 -12.0101,2.0099 -3.39487,-1.1454 -6.46206,-2.3197 -10.90905,-4.077 -2.46859,-0.976 -3.45517,-1.3652 -6.05573,-2.4354 -2.61015,-7.1823 -3.38178,-14.3076 -4.84108,-20.8713 -0.33468,5.3959 0.64315,13.7281 2.42754,19.8791 l -2.04744,-0.8503 c -0.38534,-1.2719 -0.70255,-2.5349 -1.01189,-5.5734 -0.32943,-3.2266 -0.51033,-6.5702 -0.60382,-9.9245 -0.0629,-2.3051 -0.3041,-4.7161 -0.32157,-7.0075 -0.004,-0.5877 0.33379,-0.335 0.33379,-0.5045 8e-4,-1.9627 0.19051,-4.0541 0.54966,-5.9772 -2.48522,6.029 -7.35775,8.9053 -9.25837,13.0148 -0.40545,0.8754 -0.49809,1.5663 -0.21933,2.3757 0.34692,1.0042 0.67111,2.3195 0.8249,2.87 0.80394,2.8862 1.49864,5.2818 2.2152,7.5589 -3.34507,-1.4323 -6.74258,-2.9081 -10.15754,-4.4101 -1.17096,-2.8791 -1.91109,-5.7835 -1.69002,-8.6019 0.10925,-1.396 1.35883,-3.4756 1.91373,-4.7468 1.69699,-3.8821 4.80612,-7.5199 5.95259,-11.4556 1.36931,-4.7025 3.21051,-8.5738 6.49178,-12.5031 0.9927,-1.1887 2.12694,-2.2164 3.51985,-2.8627 0.87908,-0.4083 1.56854,-0.5207 2.92038,-0.9841 0.54265,-0.1857 0.80307,-0.2998 1.74943,-0.6501 -0.13981,2.8058 -0.0209,29.5583 -3.56002,28.3787 -0.81357,-0.2708 -1.03203,-0.9515 -1.2199,-1.7075 0.0814,0.6844 0.28837,1.9065 0.62131,2.5115 0.24816,0.4509 0.59859,0.8157 0.94461,0.8755 4.97306,0.8673 5.85563,-27.4878 5.47899,-30.855 -0.0253,-0.4399 -0.13805,-0.6509 0.70608,-0.9434 0.52167,-0.18 0.55314,-0.2118 1.05559,-0.4345 0.63354,-0.277 1.38155,-1.2966 1.84992,-1.1778 0.25868,0.063 0.26304,0.2318 0.28839,0.3557 0.85722,26.9726 20.76773,26.1958 20.85251,2.1539 0.0357,-0.072 0.006,-0.373 1.1281,0.1486 1.57031,0.7307 0.4212,0.3974 1.99324,1.126 0.87735,0.4076 0.7786,7.4856 0.86248,8.9389 0.0673,1.1506 0.15556,2.3076 0.27178,3.5164 0.36177,3.7798 0.26389,5.5653 -0.1206,8.4669 -0.45789,3.464 0.38275,4.3476 0.99005,7.77 0.0725,-0.4483 0.13631,-0.9035 0.19836,-1.3528 0.2438,-1.7698 -0.0176,-5.9581 0.88696,-7.1207 0.35915,-0.4643 0.72005,-0.9261 1.08007,-1.3907 1.70748,2.4201 2.39345,3.8769 3.66489,6.5558 0.49286,1.0385 0.99531,2.0734 1.51611,3.1063 1.40952,-0.5241 2.25889,0.2417 2.63641,1.5184 0.57409,1.9365 -2.75001,2.2055 -3.75054,2.3259 -1.40079,0.1703 -2.36375,0.7514 -2.56736,-0.9951 0.38623,1.2794 1.413,0.7098 2.40394,0.5651 1.17356,-0.1711 3.08641,-0.022 2.95184,-1.1834 -0.1739,-1.4984 -0.41771,-2.3077 -1.67429,-2.2309 -1.52309,0.7018 -1.88486,0.7887 -3.20087,1.8488 -0.13896,-1.3408 -0.33469,-2.5249 -0.46051,-3.865 -0.0934,-0.9868 -0.81529,-1.5446 -1.43049,-1.3382 -0.98046,0.3307 -0.56625,3.8752 0.10058,7.2549 0.0386,0.1992 0.54965,1.4186 0.58984,1.6051 0.25341,1.1942 0.12328,2.2815 0.3408,2.7269 0.34255,0.7009 0.88432,1.3492 1.9408,2.3558 -0.43255,0.7452 -0.30933,1.3598 0.3513,1.9683 0.96296,0.8846 2.81201,1.0103 4.02753,1.1065 0.67811,0.6292 1.03025,0.9531 1.36932,1.1541 2.09459,1.2468 5.78045,-0.2145 7.00733,-2.1901 0.5715,-0.9206 0.52255,-2.0343 0.40547,-4.2487 -0.14332,-2.7107 -0.94901,-3.4767 -2.42316,-5.4993 -0.47014,-4.8744 -0.88695,-6.4481 -3.4849,-10.686 -1.27318,-2.2833 -1.20675,-1.9248 -1.28628,-4.5585 -0.0866,-2.8492 -0.28663,-4.784 -1.7573,-8.0668 -0.75936,-1.6967 -1.74857,-3.2748 -3.1205,-4.0787 -0.38187,-0.2245 -0.87122,-0.4299 -1.70137,-0.7649 -1.26532,-0.4482 -2.48871,-0.9725 -3.75578,-1.4188 -0.25515,-0.09 -0.37574,-0.1081 -0.44303,-0.1685 0.0524,1.1174 0.12328,2.2237 0.20797,3.3237 0.22719,2.9307 -7.9e-4,5.424 0.18876,8.2063 0.21408,3.1252 -0.32334,5.0935 -0.71743,7.6439 -0.49984,3.2394 -0.33294,4.6247 -0.0944,7.8913 -0.11178,0.6943 -0.24291,1.3742 -0.41331,2.0008 -0.19925,0.728 -0.33818,1.3082 -0.39848,2.1827 -0.0813,1.16 -0.17565,2.4119 -0.0497,3.4748 0.14069,1.1879 0.27439,2.5642 0.69821,3.5618 0.35303,0.832 0.71042,1.328 1.04073,2.1555 0.2709,0.6828 0.14506,1.9549 0.38625,2.9254 0.2674,1.07 0.31807,1.1553 0.0376,2.2389 -1.04248,4.028 -17.23829,6.0072 -20.85513,6.353 z m -14.95493,-22.1517 c 3.57052,6.1248 7.52728,7.7555 15.35254,10.7848 -8.06732,-0.1575 -12.44964,0.2898 -15.35254,-10.7848 z m 44.55636,4.4881 c 0.28923,0.5983 0.35653,1.0829 0.25779,1.4711 -0.35828,1.417 -2.22568,1.2837 -3.29527,1.4812 0.49285,0.025 0.87122,0.029 1.23038,0.058 1.7302,0.1422 2.98241,1.0767 1.45406,2.7722 1.44185,0.375 2.49308,-1.96 0.98482,-2.7822 0.42119,-0.2933 1.02764,-2.4453 -0.63178,-3.0004 z m 1.22424,-3.329 c 0.89657,-0.2445 1.63321,-0.8693 2.54203,-0.9427 -0.89657,-0.087 -2.23356,-0.1545 -3.14672,0.1344 -0.13981,-0.2389 -0.90268,-0.4019 -1.37105,-0.1637 1.6734,0.2108 1.70224,2.5639 0.31807,3.1079 -0.90618,0.3559 -1.84819,0.129 -3.08903,0.036 -0.89744,-0.064 -1.3798,0.2699 -1.96528,-0.4128 0.49723,2.4191 8.98398,2.4779 6.71198,-1.7609 z m 0.48412,-7.8731 c 0.61606,1.6921 0.10657,4.0152 -1.62535,4.8067 2.56559,0.2127 3.71209,-2.1388 1.62535,-4.8067 z m -3.3442,-7.291 c -1.48641,-0.6148 -5.29198,-2.1529 -6.00504,0.5115 -0.44042,-1.4531 -0.51645,-3.1426 1.46456,-2.9623 1.61224,0.1468 3.6448,1.8397 4.54048,2.4508 z m -42.40409,0.776 c -1.34397,-0.5759 -0.83015,-3.5744 -2.445,-4.1203 -3.00777,-1.0176 -6.21564,3.223 -7.95633,5.433 1.84118,-1.6244 3.49535,-3.8578 6.13699,-3.5246 1.10978,0.1394 1.80448,0.851 2.19772,1.9021 0.40895,1.0954 1.73633,0.2427 2.06662,0.3098 z m -0.78208,64.7924 -0.10482,4.4672 c -0.0953,1.7255 -0.48412,2.8861 -0.78473,4.5475 -0.56361,3.1054 -0.56451,5.9103 -0.52256,9.0302 l -7.8e-4,0 0,0 c 0.10922,3.3896 0.21408,5.9066 0.74975,9.2554 -1.15261,-2.4036 -1.58166,-3.4086 -1.29941,-7.7843 -1.05386,2.2264 -0.90531,4.1294 -0.59946,6.6264 0.0944,0.7687 0.30148,1.4432 0.95075,2.238 0.67809,0.832 1.28892,1.6133 1.73982,2.6936 0.17652,0.421 0.3539,0.8439 0.53129,1.2665 0.20011,0.5695 0.26303,0.91 0.44392,1.235 0.30322,0.5423 1.31076,1.3372 1.84205,1.6242 1.18406,0.6427 4.60602,0.6746 5.92116,0.2508 0.78209,-0.2535 1.25047,-0.4972 1.73021,-0.8274 0.64577,-0.4466 1.00841,-0.7997 1.31252,-1.2079 0.47448,-0.6364 0.90966,-1.4187 1.31248,-2.1991 0.82231,-1.5935 1.11942,-2.2026 1.24,-3.2522 0.18439,-1.6196 0.17302,-3.5834 0.13982,-5.4864 -0.0227,-1.2748 -0.0101,-2.4473 0.0314,-3.617 0.0576,-1.7173 0.16864,-3.4448 0.27614,-5.1679 0.0594,-0.9841 0.0804,-1.4529 0.19923,-1.9337 0.40285,-1.6288 0.95774,-3.312 1.47944,-4.9967 0.55924,-1.8099 0.46314,-1.6325 0.67374,-3.3589 -2.90292,0.057 -5.66338,-1.2857 -7.97906,-2.4263 -3.44208,-1.6941 -6.05923,-2.5669 -9.28285,-0.9789 z m 21.1103,-78.076 c -0.61695,0.3613 -1.78965,0.298 -2.65126,0.014 1.04862,2.1394 1.9784,1.8197 2.65126,-0.014 z m -8.18704,-9.3651 c 0.15117,1.5527 0.19574,2.3231 0.88782,3.1108 0.87472,0.9968 1.25309,1.3427 1.56419,1.8288 0.76722,1.197 0.87819,1.4496 2.06751,2.5687 -0.26391,-0.9199 -0.84851,-3.6714 -1.33175,-4.2798 -0.42469,-0.5341 -1.13075,-0.9669 -1.85255,-1.6522 -0.69294,-0.6582 -0.90529,-0.7424 -1.33522,-1.5763 z m 12.17786,3.2811 c -0.61954,1.8178 -0.99704,4.2869 -2.49568,4.611 0.3268,-1.2684 0.18175,-2.0425 0.43778,-2.5504 0.3041,-0.6057 1.04949,-0.8974 2.0579,-2.0606 z m 2.06928,-14.4388 c 0.0108,-0.4538 0.18874,-0.5188 0.71218,-1.0674 0.29535,-0.3105 0.57585,-0.6755 0.748,-0.6981 0.56449,-0.078 0.36613,1.0367 0.35827,1.3347 -0.0786,-0.2754 -0.17913,-0.4791 -0.51731,-0.1677 -0.23506,0.2136 -0.53304,0.4952 -0.58197,0.6076 -0.0482,0.1107 0.0673,0.2244 0.0769,0.3178 0.0394,0.3883 0.0262,0.1947 0.11967,0.4817 0.1162,0.3639 -0.16517,0.5764 -0.33294,0.8953 0.0463,-0.2906 0.11539,-0.833 -0.26653,-0.9831 -0.37486,-0.1467 -0.32855,-0.2301 -0.31632,-0.7208 z m -5.53756,3.2766 c 0.0228,-0.5426 -0.34516,-1.3971 -1.18405,-1.0421 -0.70694,0.2986 -0.16254,1.0836 -1.21377,1.0421 -1.03288,-0.043 -0.92889,-1.0946 -1.83768,-1.0965 -0.45526,0 -0.84765,0.7279 -0.7786,1.1037 0.43692,0 0.68509,-0.1585 0.9158,0.1864 0.38622,0.5759 0.79606,0.9163 1.62096,0.9405 0.45528,0.014 0.87384,-0.1619 1.10279,-0.6038 0.11712,-0.2281 0.2744,-0.6046 0.59422,-0.572 0.22019,0.024 0.57936,0.3693 0.61867,0.5596 0.0934,-0.1262 0.15206,-0.2918 0.16166,-0.5179 z m -5.65375,3.0455 c 0.43256,0.8004 0.91228,1.1453 1.36143,1.3001 0.88784,0.3079 2.67659,0.2073 3.32411,-0.3394 -0.79432,0.084 -2.74649,-0.068 -3.52333,-0.6275 -0.42818,-0.3086 1.19628,-0.6319 1.30115,-0.6482 0.61956,-0.094 3.1939,-0.07 3.51984,0.4518 0.18089,0.2887 -0.68771,0.6003 -0.81966,0.6474 1.05385,0.2653 1.75292,-0.346 1.70485,-0.7199 -1.19103,-1.1252 -2.2711,-1.4604 -3.80032,-1.4522 -1.00493,0 -2.09811,0.3705 -3.06807,1.3879 z m 8.87824,-9.777 c -0.91317,-0.3097 -2.16801,-0.3358 -3.02786,-0.2118 -1.21727,0.1756 -1.83158,0.7668 -1.93382,1.7228 -0.14681,1.388 1.8071,1.9058 2.57521,1.6169 -0.54963,-0.1954 -0.88346,-0.237 -0.89481,-0.8239 1.43485,0.2147 2.16625,-0.037 3.1336,-0.6635 -1.04425,-0.4001 -1.41562,-0.5431 -2.81465,-0.6031 0.15556,-0.8094 2.25189,-0.8292 2.96233,-1.0374 z m -11.19742,0.6265 c 0.89306,-0.2083 2.18636,-0.2364 3.02262,-0.086 1.00579,0.18 1.8141,1.1786 1.26882,2.094 -0.47624,0.8012 -2.00024,1.1126 -2.85309,1.0537 0.70256,-0.4688 0.77597,-0.3257 1.32212,-0.9813 -1.34921,0.307 -2.00634,0.057 -3.00601,-0.4942 0.79083,-0.5206 1.79923,-0.7336 2.69666,-0.6393 -0.54264,-0.6246 -1.72932,-0.6065 -2.45112,-0.947 z m -3.44207,4.0896 c 0.1154,-0.4066 0.19312,-0.7805 -0.13457,-0.9714 -0.15466,-0.09 -0.26915,-0.1513 -0.38973,-0.2002 -1.4436,-0.5893 -1.32999,0.9605 -0.29186,1.7971 -0.18351,-0.305 -0.74015,-0.9398 -0.1075,-1.2049 0.20098,-0.084 0.87909,0.06 0.92365,0.5794 z m 16.60563,-1.5617 c -0.45527,0.3041 -0.4474,-0.9164 -0.3574,-2.0799 0.0558,-0.7359 0.11352,-2.0858 0.10832,-3.3633 -0.0121,-2.8095 -0.21062,-2.6554 -1.19018,-3.5933 -0.62915,-0.602 -1.16744,-1.3617 -1.88138,-1.5509 -0.59422,-0.1584 -0.71129,0.069 -0.52693,-0.6057 0.12061,-0.4463 -0.002,-0.9299 0.39673,-1.3726 -0.44216,0.3142 -0.67635,0.7749 -0.97958,1.1453 -1.00318,1.2259 -0.9988,0.068 -2.25015,0.9017 -0.80917,0.5396 -1.65505,0.7977 -2.42753,1.0466 -1.05736,0.3414 -2.05353,0.5406 -3.00864,0.7759 -1.15871,0.2861 -1.46019,0.5098 -2.24752,1.1997 -1.58952,1.3916 -1.54669,4.39 -1.20329,6.629 0.10751,0.6989 -0.17302,1.215 -0.5173,1.0856 -0.37576,-0.1414 -0.52082,-0.2643 -0.46664,-0.4338 0.11447,-0.3584 0.17302,-0.7621 0.10485,-1.1731 -0.20623,-1.246 -0.0996,-2.0174 -0.33646,-2.5805 -0.68158,-1.6241 -0.0271,-2.2896 0.28051,-2.9812 0.0542,-0.122 0.11714,-0.2401 0.18876,-0.3586 0.80306,-1.3219 2.4354,-2.3875 4.67506,-3.3825 0.50508,-0.2236 0.89044,-0.9507 1.47068,-1.1424 0.78121,-0.2591 2.61979,-0.1794 3.37653,-0.4184 1.48377,-0.469 2.90117,-0.6084 3.92705,-1.0348 -0.13277,0.5858 -0.24643,0.9796 -0.37925,1.5654 0.33468,0.1449 0.78907,0.035 1.05297,0.1502 0.69908,0.3051 1.00841,0.7741 1.36145,1.1109 0.16078,0.1547 0.77858,0.8673 0.89656,1.0475 0.86249,1.3119 0.18613,2.8854 0.13719,4.38 -0.0358,1.1073 -0.0926,2.2111 -0.19485,3.3609 -0.0638,0.7151 0.67808,1.2113 -0.0101,1.6723 z"
         id="path3405"
         inkscape:connector-curvature="0" />
      <path
         style="fill:#ffffff;fill-opacity:1;stroke:none"
         d="m 73.47797,1426.1746 -39.796536,0 -54.903876,0 35.072024,48.7187 -35.072024,48.5157 62.539505,0 0,-78.0171 38.792509,0 c -2.458135,-6.2805 -4.67245,-12.6903 -6.631602,-19.2173 z m 454.62708,0 12.63576,0 82.06604,0 -35.07255,48.7187 35.07255,48.5157 -62.53916,0 0,-78.0171 -38.79425,0 c 2.45638,-6.2813 4.67243,-12.6886 6.63161,-19.2173 z"
         id="path3407"
         inkscape:connector-curvature="0" />
      <path
         style="fill:#ffffff;fill-opacity:1;stroke:none"
         d="m 300.7915,1124.9278 c 29.14702,0 56.97104,5.8767 82.42956,16.5456 -0.88955,2.2952 -1.54757,4.774 -2.40654,6.8871 l -1.14649,1.5572 c -24.36886,-10.178 -50.99134,-15.7832 -78.87653,-15.7832 -28.27143,0 -55.24695,5.7573 -79.88929,16.2051 -1.32039,-2.1729 -2.5927,-4.524 -3.51111,-6.5637 -0.2237,-0.5181 -0.43342,-1.0611 -0.6344,-1.6207 25.89195,-11.0998 54.27347,-17.2274 84.0348,-17.2274 z m 168.32567,81.1805 c 6.00854,7.3951 11.57317,15.1847 16.6502,23.3394 l 0.0629,0.1039 0.45439,0.7352 0.45352,0.7361 0.0594,0.097 0.38974,0.6417 0.4474,0.7408 0.1809,0.2996 0.26302,0.4427 0.44303,0.7442 0.11712,0.1984 0.32157,0.5476 0.43605,0.7488 c 3.55918,6.1266 6.84656,12.4416 9.84821,18.9257 -2.8802,0.8819 -5.76299,1.7537 -8.64929,2.6157 -2.71066,-5.7536 -5.6564,-11.3669 -8.82754,-16.8246 l -0.0228,-0.043 -0.91229,-1.5535 -0.0108,-0.016 -0.91229,-1.5262 -0.0472,-0.079 -0.88871,-1.4577 -0.0848,-0.1371 c -5.00364,-8.1311 -10.51232,-15.8937 -16.47892,-23.2453 l -8e-4,0 c -0.67374,-0.8303 -1.35534,-1.656 -2.0413,-2.4761 l -0.18612,-0.2246 -0.0148,-0.019 -0.17303,-0.2046 -0.18875,-0.2246 -0.37662,-0.4446 -0.18788,-0.2226 -0.3775,-0.4427 -0.18963,-0.2219 -0.76112,-0.8837 -0.0558,-0.065 -0.13456,-0.1539 -0.19139,-0.2191 -0.19224,-0.22 -0.0673,-0.078 -0.12501,-0.1414 -0.19224,-0.2191 -0.19226,-0.2199 -0.0769,-0.088 -0.11538,-0.129 -0.19313,-0.2171 -0.19224,-0.2172 -0.0892,-0.1012 -0.10483,-0.1165 -0.194,-0.2181 -0.194,-0.2182 -0.0996,-0.1121 -0.0944,-0.1041 -0.19574,-0.2164 -0.19397,-0.2156 -0.11098,-0.1232 -0.0848,-0.093 -0.19486,-0.2155 -0.19574,-0.2164 -0.12141,-0.1328 -0.0734,-0.083 -0.1975,-0.2146 -0.19748,-0.2146 -0.13103,-0.1465 -0.0647,-0.069 -0.1975,-0.2128 -0.19747,-0.2146 -0.14332,-0.1567 -0.0534,-0.058 -0.19836,-0.2127 -0.19837,-0.2136 -0.15551,-0.1665 -0.0438,-0.044 -0.1975,-0.2137 -0.20011,-0.2119 -0.16602,-0.1783 -0.0324,-0.033 -0.20012,-0.2121 -0.20011,-0.2117 -0.17913,-0.1883 -0.0209,-0.022 -0.20185,-0.2109 -0.19923,-0.21 -0.18963,-0.1992 -0.0108,-0.015 -0.20186,-0.2099 -0.20099,-0.211 -0.20185,-0.2083 -0.15817,-0.1629 -0.15729,-0.163 -0.15906,-0.163 -0.15813,-0.1629 -0.0209,-0.022 -0.13719,-0.1403 -0.15818,-0.163 -0.15903,-0.1628 -0.15991,-0.1612 -0.0393,-0.042 -0.11968,-0.1218 -0.15904,-0.1614 -0.15903,-0.1619 -0.15992,-0.1612 -0.0604,-0.06 -0.0996,-0.1 -0.15992,-0.1618 -0.15904,-0.1613 -0.1608,-0.1583 -0.083,-0.084 -0.0778,-0.079 -0.16079,-0.1602 -0.16079,-0.1612 -0.1599,-0.1594 -0.10405,-0.1026 -0.0576,-0.057 -0.16165,-0.1593 -0.16079,-0.1602 -0.16253,-0.1594 -0.12407,-0.122 -0.0367,-0.036 -0.16255,-0.1585 -0.16252,-0.1594 -0.16255,-0.1583 -0.14418,-0.1431 -0.0166,-0.015 -0.16254,-0.1574 -0.16341,-0.1586 -0.1634,-0.1574 -0.16255,-0.1584 -0.004,0 -0.15901,-0.155 -0.16429,-0.1557 -0.16343,-0.1584 -0.16514,-0.1565 -0.0228,-0.025 -0.13981,-0.1318 -0.1643,-0.1556 -0.16426,-0.1567 -0.32857,-0.3133 -0.1643,-0.1556 -0.49547,-0.4671 -0.16602,-0.1551 -0.16516,-0.1545 -0.93937,-0.8767 -0.0558,-0.051 -1.6734,-1.5291 8e-4,0 c -11.21051,-10.1557 -23.46354,-19.1089 -36.58953,-26.6305 0.0629,-0.2652 0.11444,-0.5351 0.15378,-0.8103 0.73055,-2.2444 0.81792,-4.7921 0.38711,-7.0293 l -0.09,-0.4644 -0.14594,-0.4518 c -0.23244,-0.7225 -0.5479,-1.4078 -0.92977,-2.0489 16.68865,9.0239 32.12071,20.1987 45.95275,33.169 l 0.16604,0.1557 0.49896,0.4708 0.16604,0.1566 0.6615,0.6285 0.16516,0.1583 0.33031,0.3159 0.16427,0.1585 0.16427,0.1594 0.1643,0.1584 0.16428,0.1584 0.0638,0.06 0.0987,0.099 0.16516,0.1594 0.16429,0.1602 0.16252,0.1594 0.32595,0.3195 0.16429,0.1594 0.16342,0.1593 0.16166,0.1612 0.16253,0.1611 0.16253,0.1593 0.16166,0.162 0.16342,0.1603 0.16077,0.1611 0.0594,0.061 0.10229,0.1025 0.16342,0.1613 0.16078,0.1619 0.16078,0.162 0.16078,0.1631 0.004,0 0.15641,0.1602 0.16166,0.1612 0.15992,0.1629 0.1599,0.1621 0.10925,0.1122 0.0524,0.052 0.15991,0.1629 0.53304,0.545 0.10577,0.108 0.15904,0.1639 0.15903,0.1649 0.15991,0.1637 0.15905,0.1649 0.20884,0.2164 0.20885,0.2165 0.17391,0.1818 0.0332,0.035 0.2071,0.2164 0.20884,0.2174 0.13984,0.1484 0.0682,0.07 0.20534,0.2201 0.20711,0.2181 0.10831,0.1151 0.0979,0.1039 0.20709,0.2171 0.20536,0.2202 0.0752,0.08 0.12931,0.1413 0.20623,0.2191 0.20445,0.2217 0.0429,0.043 0.1634,0.1748 0.20362,0.2217 0.20448,0.2201 0.009,0.014 0.19398,0.2119 0.20536,0.221 0.18001,0.1964 0.0217,0.025 0.20275,0.2226 0.2036,0.2228 0.14767,0.1609 0.0551,0.061 0.20097,0.2237 0.20187,0.2236 0.1154,0.1247 0.0873,0.1 0.20185,0.2236 0.19924,0.2236 0.0831,0.09 0.11887,0.1345 0.2001,0.2236 0.20011,0.2255 0.0515,0.057 0.14767,0.1694 0.20012,0.2254 0.20011,0.2254 0.0175,0.019 0.18087,0.2065 0.19837,0.2255 0.187,0.2126 0.0108,0.015 0.19924,0.2272 0.19661,0.2264 0.1538,0.1756 0.0446,0.051 0.1966,0.2282 0.31896,0.3667 0.0752,0.09 0.19574,0.2281 0.78383,0.9181 0.0586,0.069 0.13718,0.1621 0.19399,0.2301 0.38799,0.4624 0.19313,0.2319 0.19137,0.2253 0.002,0 0.19312,0.2321 0.57761,0.696 0.19223,0.2335 0.12757,0.1531 0.0638,0.081 0.19224,0.2334 0.1905,0.2336 0.0962,0.1165 0.0934,0.1163 0.19139,0.2344 z m 40.37152,74.5106 c 7.31495,22.6949 11.27957,46.9768 11.27957,72.2192 0,32.9536 -6.75394,64.2712 -18.9021,92.5538 l -9.76957,0 c 12.69258,-28.1068 19.78468,-59.4716 19.78468,-92.5538 0,-24.5235 -3.89733,-48.1065 -11.08555,-70.1196 2.86093,-0.696 5.75686,-1.397 8.69297,-2.0996 z M 197.29797,1162.1827 c -16.82147,9.8224 -32.21509,21.9632 -45.771,36.0083 -16.65983,17.2615 -30.54691,37.3933 -40.91245,59.6209 l -8.11448,-3.7635 c 10.81291,-23.2552 25.32394,-44.3168 42.74487,-62.3661 14.31966,-14.8361 30.60371,-27.6372 48.41526,-37.9456 0.0962,0.9713 0.31283,1.931 0.64576,2.8401 0.40108,2.2353 1.47068,4.209 2.99204,5.6059 z m -97.581141,283.2092 c -12.14903,-28.2826 -18.902074,-59.6002 -18.902074,-92.5538 0,-25.3228 3.988209,-49.6782 11.345095,-72.4337 l 0.503328,0.1846 c 2.493072,1.0812 4.979164,2.1576 7.457372,3.2105 l 0.28051,0.1164 c -6.938314,21.6699 -10.7002,44.84 -10.7002,68.9218 0,33.0821 7.093852,64.4467 19.78642,92.5538 l -9.770451,0 z"
         id="path3409"
         inkscape:connector-curvature="0" />
      <path
         style="fill:#ffffff;fill-opacity:1;stroke:none"
         d="m 50.202302,1454.5985 501.179278,0 0,118.1431 -501.179278,0 0,-118.1431 z m 45.709827,51.4945 4.893511,0 c 5.20722,0 9.08098,1.4306 11.62299,4.2905 2.54115,2.8601 3.80995,7.052 3.80995,12.5774 l 0,8.8744 c 0,5.5254 -1.2688,9.7172 -3.80995,12.5773 -2.54201,2.86 -6.41577,4.2906 -11.62299,4.2906 l -15.24592,0 0,-68.2546 27.38535,0 0,9.7507 -17.032941,0 0,15.8937 z m 4.893511,32.8585 c 1.63146,0 2.8863,-0.4536 3.76453,-1.3635 0.87819,-0.9098 1.31775,-2.6011 1.31775,-5.07 l 0,-10.2397 c 0,-2.4699 -0.43956,-4.1593 -1.31775,-5.0692 -0.87823,-0.9098 -2.13307,-1.3661 -3.76453,-1.3661 l -4.893511,0 0,23.1085 4.893511,0 z m 31.904,-29.7386 14.21042,0 0,9.7507 -14.21042,0 0,19.9879 17.87969,0 0,9.7517 -28.2321,0 0,-68.2546 28.2321,0 0,9.7507 -17.87969,0 0,19.0136 z m 34.35075,39.4903 -10.3524,0 0,-68.2546 27.38535,0 0,9.7507 -17.03295,0 0,58.5039 z m 31.14987,-15.6989 c 0,2.4705 0.48673,4.2089 1.45843,5.2173 0.97348,1.0079 2.2755,1.5112 3.90607,1.5112 1.63147,0 2.93351,-0.5033 3.90522,-1.5112 0.97259,-1.0084 1.45845,-2.7468 1.45845,-5.2173 l 0,-36.8575 c 0,-2.4698 -0.48586,-4.2092 -1.45845,-5.2149 -0.97171,-1.0085 -2.27375,-1.512 -3.90522,-1.512 -1.63057,0 -2.93259,0.5035 -3.90607,1.512 -0.9717,1.0057 -1.45843,2.7451 -1.45843,5.2149 l 0,36.8575 z m -10.35241,-36.175 c 0,-5.5254 1.34921,-9.766 4.04763,-12.7248 2.69669,-2.957 6.5879,-4.4355 11.66928,-4.4355 5.08229,0 8.97177,1.4785 11.67018,4.4355 2.69843,2.9588 4.04589,7.1994 4.04589,12.7248 l 0,35.4922 c 0,5.5256 -1.34746,9.768 -4.04589,12.7249 -2.69841,2.9587 -6.58789,4.4362 -11.67018,4.4362 -5.08138,0 -8.97259,-1.4775 -11.66928,-4.4362 -2.69842,-2.9569 -4.04763,-7.1993 -4.04763,-12.7249 l 0,-35.4922 z m 53.64343,-16.3807 c 5.39685,0 9.30294,1.3009 11.71824,3.9003 2.4153,2.6012 3.62208,6.533 3.62208,11.7979 l 0,2.4379 c 0,3.5093 -0.53305,6.4038 -1.59914,8.6782 -1.06609,2.2752 -2.76047,3.9662 -5.08314,5.0707 2.82425,1.1047 4.81662,2.9082 5.97797,5.4107 1.15959,2.5023 1.73981,5.5743 1.73981,9.2147 l 0,5.559 c 0,5.2648 -1.31776,9.2781 -3.9524,12.0404 -2.63463,2.764 -6.55644,4.1448 -11.76365,4.1448 l -16.28144,0 0,-68.2546 15.62167,0 z m -5.26926,37.5392 0,20.9637 5.92903,0 c 1.75642,0 3.08903,-0.4862 3.99956,-1.4622 0.90967,-0.9742 1.36408,-2.7298 1.36408,-5.2646 l 0,-5.9475 c 0,-3.185 -0.51645,-5.3624 -1.55196,-6.5339 -1.0355,-1.1689 -2.7456,-1.7555 -5.13031,-1.7555 l -4.6104,0 z m 0,-27.7885 0,18.0394 4.04589,0 c 1.94517,0 3.46741,-0.5204 4.56496,-1.5608 1.09754,-1.0402 1.64719,-2.9243 1.64719,-5.6557 l 0,-3.8026 c 0,-2.4709 -0.42382,-4.2579 -1.27143,-5.3625 -0.84677,-1.1056 -2.17938,-1.6578 -3.99872,-1.6578 l -4.98789,0 z m 37.17326,42.805 c 0,2.4705 0.4876,4.2089 1.45932,5.2173 0.97258,1.0079 2.27461,1.5112 3.9052,1.5112 1.63233,0 2.93436,-0.5033 3.9052,-1.5112 0.97346,-1.0084 1.45932,-2.7468 1.45932,-5.2173 l 0,-36.8575 c 0,-2.4698 -0.48586,-4.2092 -1.45932,-5.2149 -0.97084,-1.0085 -2.27287,-1.512 -3.9052,-1.512 -1.63059,0 -2.93262,0.5035 -3.9052,1.512 -0.97172,1.0057 -1.45932,2.7451 -1.45932,5.2149 l 0,36.8575 z m -10.35155,-36.175 c 0,-5.5254 1.34922,-9.766 4.04764,-12.7248 2.69668,-2.957 6.58702,-4.4355 11.66843,-4.4355 5.08314,0 8.97175,1.4785 11.67017,4.4355 2.69843,2.9588 4.04677,7.1994 4.04677,12.7248 l 0,35.4922 c 0,5.5256 -1.34834,9.768 -4.04677,12.7249 -2.69842,2.9587 -6.58703,4.4362 -11.67017,4.4362 -5.08141,0 -8.97175,-1.4775 -11.66843,-4.4362 -2.69842,-2.9569 -4.04764,-7.1993 -4.04764,-12.7249 l 0,-35.4922 z m 48.65556,51.8739 -10.63379,0 0,-68.2546 9.22253,0 0,40.8556 10.63467,-40.8556 12.98705,0 0,68.2546 -9.31693,0 0,-49.4348 -12.89353,49.4348 z m 17.31693,-80.0515 0,7.9943 -22.77494,0 0,-7.9943 22.77494,0 z m 40.56117,52.8472 -3.19914,6.2404 0,20.9639 -10.35243,0 0,-68.2546 10.35243,0 0,29.7402 13.73943,-29.7402 10.16365,0 -14.3983,30.4229 14.3983,37.8317 -10.63291,0 -10.07103,-27.2043 z m 54.49106,-31.2996 -12.04678,0 0,41.5372 c 0,3.445 -0.40722,6.2736 -1.22339,8.4844 -0.81441,2.209 -1.91371,3.9483 -3.29352,5.2156 -1.38067,1.2677 -2.96406,2.1621 -4.75282,2.6817 -1.78789,0.5207 -3.65354,0.7797 -5.59958,0.7797 -0.94026,0 -1.78789,0 -2.54027,0 -0.75325,0 -1.56854,-0.064 -2.44763,-0.1947 l 0,-9.7517 c 0.56536,0.066 1.16046,0.099 1.78876,0.099 0.62653,0 1.22338,0 1.78789,0 1.63147,0 3.02699,-0.422 4.18831,-1.2675 1.16048,-0.8457 1.73983,-2.6013 1.73983,-5.2648 l 0,-52.0693 32.75073,0 0,68.2545 -10.35153,0 0,-58.5039 z m 20.70394,48.7522 c 0.56452,0.066 1.16135,0.099 1.78964,0.099 0.62654,0 1.22338,0 1.78701,0 0.81618,0 1.58514,-0.099 2.30607,-0.2934 0.72179,-0.1946 1.34922,-0.5521 1.88226,-1.0729 0.53391,-0.5188 0.94112,-1.2674 1.22337,-2.2415 0.2814,-0.976 0.42382,-2.2091 0.42382,-3.7058 l -15.05893,-51.288 10.35241,0 11.38703,39.9783 9.41217,-39.9783 10.35243,0 -13.55244,50.3138 c -1.1928,4.68 -2.39957,8.2705 -3.62294,10.773 -1.22339,2.5035 -2.52542,4.2905 -3.9052,5.3634 -1.38068,1.0718 -2.8706,1.674 -4.47146,1.8043 -1.59914,0.1303 -3.37216,0.1946 -5.31646,0.1946 -0.94113,0 -1.78788,0 -2.54201,0 -0.75237,0 -1.56856,-0.064 -2.44677,-0.1946 l 0,-9.7517 z m 50.91444,-32.8585 4.89353,0 c 5.20721,0 9.08184,1.4306 11.62296,4.2905 2.54115,2.8601 3.81084,7.052 3.81084,12.5774 l 0,8.8744 c 0,5.5254 -1.26969,9.7172 -3.81084,12.5773 -2.54112,2.86 -6.41575,4.2906 -11.62296,4.2906 l -15.24594,0 0,-68.2546 27.38536,0 0,9.7507 -17.03295,0 0,15.8937 z m 4.89353,32.8585 c 1.63233,0 2.88629,-0.4536 3.76451,-1.3635 0.8782,-0.9098 1.31863,-2.6011 1.31863,-5.07 l 0,-10.2397 c 0,-2.4699 -0.44043,-4.1593 -1.31863,-5.0692 -0.87822,-0.9098 -2.13218,-1.3661 -3.76451,-1.3661 l -4.89353,0 0,23.1085 4.89353,0 z"
         id="path3411"
         inkscape:connector-curvature="0" />
      <path
         style="fill:#ffffff;fill-opacity:1;stroke:none"
         d="m 55.420013,1373.0613 -67.273646,-1.7608 -0.193107,7.874 -5.921424,-0.155 0.191462,-7.8739 0.556457,-22.8079 c 0.138861,-5.712 1.153818,-10.6291 3.043065,-14.7494 3.445567,-7.556 9.4610982,-11.223 18.0107722,-10.9992 3.5757622,0.094 6.6324658,0.869 9.1491338,2.325 2.536763,1.4576 4.58418,3.8668 6.141367,7.2283 0.140691,0.3894 0.454393,1.2866 0.941122,2.6898 0.488477,1.4025 0.870346,2.5326 1.147358,3.389 l 0.814428,3.2647 c 1.479406,-5.599 3.79247,-9.5164 6.904222,-11.7507 2.21869,-1.5637 5.35403,-2.5243 9.406918,-2.8819 l 10.476495,-0.8853 c 3.15545,-0.2254 5.141694,-0.6765 5.997185,-1.3492 1.216382,-0.9722 1.8674,-3.1941 1.952161,-6.668 l 5.941253,0.1558 c 0.347799,1.013 0.672867,2.199 0.95599,3.558 0.30235,1.3601 0.433427,2.8502 0.394104,4.4708 -0.01203,0.4625 -0.10657,1.31 -0.285744,2.5414 -0.555775,4.466 -2.459879,7.6602 -5.73154,9.5823 -1.738941,1.0359 -4.235512,1.7808 -7.453005,2.2372 l -13.824183,1.3751 c -4.878668,0.5688 -8.144218,2.2599 -9.834222,5.073 -1.671672,2.8147 -2.562117,6.4986 -2.673085,11.0518 l 31.513378,0.8247 0.192252,-7.8722 5.922026,0.155 -0.731405,29.9865 -5.922028,-0.1548 0.19224,-7.8741 z m -51.5925315,-34.947 c -4.32115457,-0.1136 -7.5762214,0.3803 -9.7634476,1.4811 -3.9261687,1.9836 -5.9595979,5.9076 -6.1029119,11.7743 -0.03583,1.4666 0.141562,3.3634 0.531293,5.6902 l 29.502678,0.7724 c 0.267385,-1.7692 0.415938,-3.3101 0.448271,-4.622 0.11887,-4.8636 -1.021522,-8.5612 -3.419346,-11.097 -2.398693,-2.5334 -6.1308714,-3.8668 -11.1965365,-3.999 z m 49.9497145,-82.3457 -45.9903319,-16.1254 -2.4720998,7.5678 -5.61182669,-1.9664 9.24525869,-28.3044 5.6118137,1.9673 -2.436266,7.4601 42.830509,14.897 c 8.788243,3.0809 14.858823,7.9818 18.223118,14.7249 3.363411,6.7422 3.773256,13.9779 1.252216,21.6933 -2.615412,8.009 -7.335914,13.6691 -14.172852,16.9576 -6.837822,3.2875 -14.568709,3.4095 -23.214508,0.3776 l -42.161144,-14.7837 -2.3646224,7.2412 -5.6126946,-1.9685 9.1744704,-28.0835 5.611827,1.9674 -2.43714803,7.4593 45.70807763,15.9046 c 6.741695,2.3639 11.615109,3.3398 14.675317,2.9459 4.474067,-0.6317 7.670582,-3.9129 9.605265,-9.8367 1.935567,-5.9248 1.318632,-10.4198 -1.866517,-13.4935 -1.970518,-1.913 -6.504009,-4.1149 -13.597862,-6.6019 z m -19.768942,-84.6192 65.46304,3.7448 -39.994906,-29.4644 -4.211041,6.1357 -5.19237,-3.8251 14.121293,-20.5771 4.828847,3.5571 -4.405033,6.4191 54.844976,40.4028 4.40416,-6.4191 4.82886,3.5571 -11.12751,16.8136 -69.494072,-4.8664 43.274422,31.8798 4.405044,-6.4189 4.827976,3.557 -14.057498,20.4831 -4.827111,-3.5572 4.340371,-6.3241 -54.844974,-40.4036 -4.339501,6.324 -4.828847,-3.5572 11.983874,-17.461 z m 76.009446,-84.179 59.38284,28.7889 -26.48968,-42.8012 -6.11688,4.0649 -3.43857,-5.557 20.51346,-13.6293 3.19827,5.1669 -6.39917,4.2517 36.32477,58.692 6.39917,-4.2506 3.19825,5.1669 -16.38019,11.2952 -62.71829,-31.389 28.66115,46.3104 6.40002,-4.2517 3.1974,5.167 -20.41997,13.566 -3.19826,-5.167 6.30565,-4.1881 -36.32563,-58.6931 -6.30478,4.1892 -3.198248,-5.1669 17.408688,-11.5652 z m 129.96397,-32.0326 -8.38713,2.4679 c -2.38211,-8.6896 -4.80526,-13.997 -7.26862,-15.9207 -1.87177,-1.4561 -5.10238,-1.5089 -9.69005,-0.1592 l -9.24699,2.7216 7.63564,27.8523 6.66653,-1.9618 -2.29121,-8.3557 8.9263,-2.6256 6.35195,23.1728 -8.92542,2.6266 -2.32092,-8.4671 -6.66655,1.9619 9.07049,33.0892 9.78441,-2.879 c 3.87113,-1.1399 6.35109,-2.4109 7.43817,-3.8143 1.08704,-1.4042 1.57202,-3.4529 1.45229,-6.1466 -0.0489,-1.0292 -0.21582,-2.3448 -0.49982,-3.9464 -0.28486,-1.6015 -0.50333,-2.8219 -0.65539,-3.6594 l -1.27929,-7.2094 8.9263,-2.6265 7.42065,27.0731 -51.50778,15.1567 -1.61835,-5.9039 7.20485,-2.1204 -18.38565,-67.0703 -7.20484,2.1203 -1.61835,-5.9047 49.7863,-14.6501 6.90248,25.1787 z m 30.63429,44.3093 -1.69961,-69.7008 -7.59893,0.199 -0.1503,-6.1362 7.59981,-0.1991 22.01383,-0.5756 c 5.51307,-0.145 10.30436,0.6563 14.37208,2.4039 7.45651,3.1838 11.2953,9.2231 11.51114,18.081 0.0909,3.7046 -0.50246,6.9059 -1.77915,9.585 -1.27668,2.6979 -3.49536,4.9386 -6.6578,6.7195 -0.36788,0.1656 -1.21727,0.535 -2.54463,1.11 -1.32824,0.5759 -2.39696,1.0285 -3.20963,1.3581 l -3.10563,1.0086 c 5.47202,1.2476 9.3641,3.442 11.67628,6.5485 1.61923,2.2172 2.70367,5.4131 3.25246,9.5887 l 1.38241,10.7973 c 0.3775,3.2531 0.91229,5.2857 1.6035,6.1367 0.99792,1.2085 3.1738,1.7708 6.52673,1.683 l 0.15031,6.1545 c -0.96037,0.4112 -2.08589,0.8087 -3.38267,1.1708 -1.29503,0.3812 -2.7255,0.5922 -4.28968,0.633 -0.44654,0.014 -1.26881,-0.044 -2.46423,-0.1677 -4.33252,-0.3504 -7.50718,-2.1582 -9.52576,-5.4465 -1.08619,-1.7473 -1.9312,-4.2934 -2.5324,-7.5989 l -2.0247,-14.2359 c -0.79432,-5.0194 -2.58918,-8.313 -5.38634,-9.9182 -2.79718,-1.589 -6.39306,-2.324 -10.7876,-2.2082 l 0.79519,32.6493 7.59892,-0.1983 0.14945,6.1348 -28.94255,0.7585 -0.14942,-6.1365 7.59892,-0.1983 z m 31.08259,-55.1504 c -0.10925,-4.4766 -0.74888,-7.8197 -1.92159,-10.0288 -2.11031,-3.9605 -5.99542,-5.868 -11.65703,-5.7198 -1.41564,0.037 -3.23498,0.3168 -5.45891,0.8379 l 0.74539,30.5663 c 1.71885,0.1865 3.21137,0.2635 4.47844,0.2301 4.69341,-0.122 8.20099,-1.4884 10.52281,-4.0986 2.3218,-2.6092 3.41935,-6.5377 3.29089,-11.7871 z m 68.52062,52.2425 c 1.34047,-6.0189 0.87297,-10.7866 -1.39553,-14.3409 -3.96549,-4.5125 -7.35164,-8.7097 -10.15142,-12.6282 -4.91013,-6.7994 -7.97383,-11.414 -9.19544,-13.8267 -2.17326,-4.3222 -2.80857,-8.516 -1.90324,-12.5773 1.11852,-5.0227 3.86152,-8.9227 8.22024,-11.6656 4.80789,-3.0496 10.48087,-3.7937 17.01633,-2.2312 3.19476,0.7631 5.80756,1.8241 7.83748,3.1806 2.03082,1.3567 3.81435,3.0512 5.35054,5.082 l 2.01072,-2.8466 6.75306,1.6137 -5.25268,23.5865 -8.08478,-1.8144 c 1.23999,-5.5671 1.44098,-10.0748 0.60296,-13.5241 -1.09057,-4.3812 -3.84928,-7.101 -8.27879,-8.1604 -3.99433,-0.9545 -7.24852,-0.4249 -9.7617,1.5899 -1.87088,1.5336 -3.09951,3.6166 -3.68586,6.2505 -0.77073,3.4603 0.65363,7.3671 4.27483,11.7192 2.60143,3.0782 5.20462,6.1565 7.80866,9.2357 10.02122,12.6958 14.16847,22.9192 12.44351,30.6691 -1.65854,7.4476 -5.40822,12.6128 -11.25159,15.4954 -5.5017,2.7271 -12.13768,3.1606 -19.90701,1.3036 -7.91439,-1.892 -13.50173,-5.4855 -16.75767,-10.7801 -2.6993,-4.37 -3.49451,-9.0372 -2.38909,-14.0025 0.66936,-3.0093 2.00547,-5.2257 4.00396,-6.6507 2.00021,-1.4241 4.1254,-1.8668 6.37642,-1.3281 1.96088,0.4688 3.53556,1.6377 4.72573,3.5064 1.18929,1.8696 1.517,4.0072 0.98045,6.4155 -0.56886,2.5587 -1.78961,4.6038 -3.66138,6.1374 l -1.23125,0.8937 -0.60296,1.1633 c -0.26827,1.2042 0.53216,2.7623 2.40046,4.6753 1.86827,1.9122 4.00044,3.1561 6.39826,3.7284 5.1548,1.2321 9.02593,0.85 11.61163,-1.1473 2.22916,-1.7644 3.79073,-4.6599 4.69515,-8.7221 z m 44.27411,-18.4706 -4.57284,-5.8287 c 1.36845,-0.8854 3.08904,-2.112 5.16529,-3.6811 2.62328,-2.0769 4.03541,-3.5337 4.23815,-4.3701 l -0.35478,-1.437 c -0.76637,-0.8682 -1.29152,-1.5381 -1.57641,-2.0098 -0.8354,-0.9 -1.32302,-2.1249 -1.46457,-3.674 -0.13371,-1.5662 0.0866,-3.0093 0.67025,-4.3466 0.92101,-2.1104 2.43539,-3.5184 4.54309,-4.2262 2.10858,-0.7072 4.18136,-0.5831 6.21739,0.3703 1.90236,0.8907 3.25856,2.3737 4.07036,4.4489 0.99882,2.5856 0.74451,5.6032 -0.76024,9.05 -1.57292,3.6052 -3.77325,6.7259 -6.608,9.3813 -2.83561,2.6554 -6.02426,4.7623 -9.56769,6.323 z m 119.43418,51.5109 -17.18936,18.6786 -6.14837,-6.074 c 3.91394,-5.1489 6.38343,-9.5101 7.42156,-13.0988 1.4794,-4.966 0.52779,-9.1335 -2.86971,-12.4905 -4.90837,-4.8492 -11.70249,-3.452 -20.39548,4.2026 -2.69843,2.3748 -6.81947,6.5721 -12.38672,12.6219 -8.75591,9.5134 -14.01817,17.3033 -15.7781,23.3538 -1.52573,5.2393 -0.66498,9.451 2.57084,12.6479 2.75086,2.7162 6.47342,3.5673 11.16859,2.5506 4.69341,-1.0178 9.14913,-3.8172 13.3663,-8.4001 l 7.03879,6.9541 c -7.7134,8.3829 -15.50895,12.0965 -23.3849,11.1442 -5.0211,-0.5859 -9.6079,-2.9306 -13.76127,-7.033 -3.18254,-3.1444 -5.49823,-6.4443 -6.94793,-9.9046 -2.28684,-5.4595 -2.68445,-11.2936 -1.19279,-17.5017 1.97489,-8.0767 7.02571,-16.5292 15.15067,-25.3593 9.82288,-10.6733 19.25339,-16.6124 28.29153,-17.8184 7.51506,-1.0049 13.96838,1.1571 19.36261,6.4852 0.64664,0.64 1.1325,1.1189 1.45582,1.4385 1.72584,1.7048 3.04709,3.5708 3.96288,5.5962 0.91753,2.0252 1.58602,4.7667 2.03343,8.1961 l 3.53906,-0.8247 4.69255,4.6354 z m 14.40703,23.879 4.98701,-3.3137 15.62782,25.2516 -4.79828,3.1879 -4.10357,-6.6291 -56.83734,37.761 5.49123,8.8717 c 2.13218,3.4448 4.03015,5.51 5.69221,6.1935 1.66291,0.6835 3.69111,0.5977 6.08281,-0.2579 0.93588,-0.3469 2.10336,-0.8928 3.50063,-1.6378 1.39815,-0.7462 2.46249,-1.3148 3.19214,-1.7084 l 6.2908,-3.3546 5.00885,8.0941 -22.86758,15.191 -28.90321,-46.7006 4.98789,-3.3135 4.04238,6.5331 56.64949,-37.636 -4.04328,-6.5323 z m 9.69353,135.191 46.70513,-13.7436 -2.10769,-7.6864 5.69919,-1.6767 7.87944,28.7444 -5.69919,1.6769 -2.07625,-7.5772 -43.43087,12.9006 c -8.92455,2.6266 -16.60648,2.1574 -23.06856,-1.4186 -6.46119,-3.5763 -10.75963,-9.2956 -12.90753,-17.1315 -2.22916,-8.1328 -1.44097,-15.5686 2.39084,-22.2934 3.83092,-6.7271 10.13046,-11.3699 18.91257,-13.9537 l 42.81567,-12.599 -2.01509,-7.3544 5.69833,-1.6768 7.81826,28.5219 -5.69832,1.6775 -2.07624,-7.5769 -46.35211,13.7606 c -6.84654,2.0144 -11.39491,4.075 -13.69921,6.1981 -3.33898,3.1498 -4.17523,7.7301 -2.52543,13.7463 1.64894,6.0162 4.61739,9.3568 8.92282,10.016 2.67131,0.4182 7.60941,-0.4338 14.81424,-2.5541 z m -12.66984,42.4481 67.27364,-1.7611 -0.18962,-7.757 5.9229,-0.1558 0.76548,31.3773 c 0.16954,6.9469 -1.25746,12.6226 -4.28182,17.0264 -3.31186,4.7975 -8.02187,7.2772 -14.13178,7.4376 -4.76769,0.1246 -8.60386,-1.2821 -11.50763,-4.2182 -2.21694,-2.2589 -4.24513,-5.9128 -6.08282,-10.9612 -0.68072,5.7319 -2.93523,10.3292 -6.76441,13.7886 -3.82919,3.4613 -8.76115,5.2693 -14.7959,5.4278 -6.85356,0.1792 -12.10273,-1.8651 -15.7484,-6.1348 -3.64479,-4.2678 -5.5559,-10.0297 -5.73241,-17.2853 l -0.83887,-34.3867 5.92201,-0.1549 0.18963,7.7573 z m 40.36454,13.6573 c -0.12758,0.8531 -0.25517,1.763 -0.38013,2.7315 -0.12502,0.9688 -0.17739,1.8778 -0.1573,2.7271 0.0996,4.0912 1.32825,7.1099 3.68762,9.0555 2.88981,2.3186 7.72302,3.3896 14.50318,3.213 3.94802,-0.1038 6.81771,-1.6848 8.60647,-4.7449 1.43136,-2.4299 2.1007,-5.5771 2.00635,-9.4357 -0.0376,-1.5446 -0.1844,-2.9687 -0.44043,-4.2751 l -27.82576,0.7286 z m -39.6707,1.0385 c -0.17826,1.858 -0.24992,3.5202 -0.2141,4.9868 0.13983,5.7119 1.68914,9.6485 4.65059,11.8115 2.4284,1.7897 6.25059,2.6174 11.46481,2.4807 6.25847,-0.1639 10.74215,-1.2476 13.45105,-3.2485 3.00254,-2.2418 4.44001,-5.9482 4.3133,-11.1198 -0.028,-1.157 -0.0551,-2.277 -0.0814,-3.357 -0.24992,-1.0755 -0.41857,-1.8812 -0.50684,-2.4201 l -33.07754,0.8664 z"
         id="path3413"
         inkscape:connector-curvature="0" />
      <path
         style="fill:#ffffff;fill-opacity:1;stroke:none"
         d="m 357.42436,1290.9646 c 31.48979,4.077 109.08876,-17.4345 162.64133,-34.7831 -2.34627,4.7495 -3.66052,9.7281 -4.01444,14.8207 -44.99676,10.007 -94.06741,26.51 -140.83546,30.2655 -9.10368,0.7415 -13.69659,0.1891 -22.43852,-0.5848 0.18088,-2.0018 0.1844,-3.1272 -1.80275,-3.138 -3.03485,-0.018 -7.72825,-0.084 -8.014,-2.2816 -0.2744,-2.1104 7.90915,-3.9411 9.55984,-4.1331 -1.78264,0.1613 -11.86067,1.6225 -11.81873,4.1865 0.0558,3.3436 5.38289,3.8895 8.55843,3.8659 1.39464,-0.014 1.35181,-0.2427 1.38853,1.1634 l 0,0 -0.0108,0.5948 c -0.0979,2.6266 -0.42994,5.1552 0.0445,8.0188 -2.08323,1.9041 -8.35043,0.8275 -10.78146,-2.7758 -0.54352,-1.6559 0.62479,-6.9016 0.22371,-9.5842 -0.19139,-1.2903 -0.54092,-1.359 0.45788,-2.2018 1.00755,-0.8492 1.77128,-1.2939 2.61717,-1.6306 4.56144,-1.8144 9.42963,-2.4301 14.2244,-1.809 z m -124.51032,10.5151 c -9.7215,8.974 -9.9653,9.1214 -22.81953,6.5493 6.39217,-0.3512 9.73024,-1.081 13.09541,-2.2028 2.67832,-0.8954 5.36101,-1.8742 9.72412,-4.3465 z m 31.86816,-3.6886 c 0.35827,-1.5609 -0.69472,-6.6526 -8.18003,-6.8137 -3.00426,-0.06 -5.75864,0.5052 -8.47017,1.6395 -7.30619,3.0638 -13.70447,6.85 -23.08517,9.6847 -21.6809,6.5485 -99.21433,-29.6932 -139.315836,-47.0917 1.696121,4.8973 2.369845,9.9483 2.091972,15.0354 34.541244,10.9487 111.392204,48.2171 133.293334,43.8198 13.13995,-2.6384 26.49665,-24.4169 38.48751,-21.6926 -2.22132,0.2299 -5.188,1.617 -6.68489,3.5301 2.39606,1.3488 2.14266,8.8173 1.74419,9.7235 4.12366,-3.8287 6.48216,-6.8779 10.11909,-7.835 z"
         id="path3415"
         inkscape:connector-curvature="0" />
    </g>
  </g>
</svg>
